<?xml version="1.0" standalone="no"?>
<!DOCTYPE svg PUBLIC "-//W3C//DTD SVG 20010904//EN"
 "http://www.w3.org/TR/2001/REC-SVG-20010904/DTD/svg10.dtd">
<svg version="1.0" xmlns="http://www.w3.org/2000/svg"
 width="1531.000000pt" height="1531.000000pt" viewBox="0 0 1531.000000 1531.000000"
 preserveAspectRatio="xMidYMid meet">
<metadata>
Created by potrace 1.14, written by Peter Selinger 2001-2017
</metadata>
<g transform="translate(0.000000,1531.000000) scale(0.100000,-0.100000)"
fill="#000000" stroke="none">
<path d="M5153 14824 c4 -7 3 -15 -3 -19 -5 -3 -10 -1 -10 5 0 6 -5 8 -10 5
-6 -4 -8 -10 -5 -15 3 -5 1 -11 -4 -14 -5 -4 -13 -1 -17 5 -5 8 -3 9 6 4 9 -6
11 -4 6 4 -5 7 -11 10 -14 7 -3 -3 -11 -1 -19 6 -8 6 -13 7 -12 2 3 -19 -1
-34 -12 -34 -5 0 -8 4 -5 8 3 5 -1 9 -9 9 -8 0 -12 -4 -9 -9 3 -4 -4 -8 -15
-8 -33 0 -36 1 -33 12 1 5 -2 7 -8 3 -6 -3 -8 -11 -5 -16 4 -5 1 -9 -5 -9 -6
0 -8 -5 -4 -12 4 -7 3 -8 -5 -4 -6 4 -8 13 -5 19 5 9 4 9 -6 0 -9 -8 -19 -9
-31 -2 -15 8 -17 6 -12 -8 6 -16 5 -17 -12 -3 -17 13 -18 13 -13 0 4 -11 -1
-16 -15 -18 -17 -1 -19 1 -7 8 9 6 10 10 3 10 -6 0 -15 -4 -18 -10 -3 -5 -13
-10 -21 -10 -8 0 -12 4 -9 10 3 6 -1 7 -9 4 -9 -3 -16 -13 -16 -20 0 -12 -3
-12 -14 -2 -8 7 -12 17 -9 21 3 5 -4 3 -16 -4 -11 -8 -16 -16 -10 -20 6 -3 4
-11 -5 -18 -9 -7 -21 -9 -28 -5 -18 12 -39 14 -33 4 7 -12 -21 -20 -32 -9 -6
6 -10 4 -10 -5 0 -8 4 -13 9 -10 4 3 8 0 8 -5 0 -6 -5 -11 -11 -11 -5 0 -7 -5
-3 -11 4 -7 -2 -6 -17 2 -22 11 -23 11 -10 -4 12 -16 8 -22 -12 -18 -5 1 -6
-3 -2 -9 3 -6 11 -8 16 -5 12 8 11 -2 -3 -28 -10 -19 -9 -20 3 -10 12 10 15 8
15 -7 0 -10 -3 -17 -6 -15 -4 2 -7 -2 -7 -10 0 -8 4 -12 9 -9 5 4 9 0 7 -7 -3
-26 1 -39 12 -39 8 0 8 4 0 14 -8 10 -9 16 -1 21 6 4 9 1 8 -7 -2 -7 3 -12 11
-10 12 3 12 0 2 -11 -9 -12 -9 -16 1 -19 10 -4 10 -8 2 -19 -12 -14 -15 -51
-5 -45 3 2 15 0 26 -5 15 -6 16 -8 4 -8 -9 -1 -20 -9 -24 -18 -5 -15 -4 -16 6
-5 18 17 34 15 20 -2 -9 -11 -9 -16 0 -22 8 -4 9 -3 5 4 -4 7 -2 12 4 12 7 0
9 -7 6 -16 -4 -10 1 -25 10 -35 15 -16 14 -17 -7 -12 -20 6 -21 5 -8 -9 7 -9
19 -13 24 -10 6 3 3 -3 -5 -13 -8 -10 -10 -16 -4 -12 7 4 15 0 18 -9 9 -23 8
-24 -11 -18 -17 5 -17 5 0 -6 9 -6 14 -16 11 -22 -4 -6 -1 -9 7 -6 8 3 13 14
11 24 -2 15 -1 16 7 4 7 -9 6 -19 -1 -27 -6 -8 -6 -13 -1 -13 5 0 10 -7 10
-15 0 -8 -4 -12 -9 -9 -13 9 -9 -6 7 -22 21 -22 19 -40 -2 -23 -16 12 -17 12
-6 -2 7 -9 9 -19 5 -23 -4 -4 -1 -6 6 -4 6 2 21 -11 33 -29 l20 -31 -23 5
c-23 5 -23 5 -3 -11 17 -13 18 -17 5 -26 -13 -8 -8 -14 12 -12 3 1 9 -5 12
-14 3 -8 2 -12 -4 -9 -5 3 -8 -4 -7 -15 1 -12 8 -20 19 -20 9 0 20 -4 23 -10
3 -6 -1 -7 -9 -4 -25 9 -19 -12 7 -25 22 -11 22 -11 -3 -5 -14 3 -20 2 -14 -3
6 -4 10 -18 9 -30 -1 -14 3 -19 12 -16 10 4 11 9 2 19 -7 9 -8 14 -1 14 15 0
21 -22 10 -42 -7 -14 -5 -16 9 -12 17 5 17 5 0 -9 -17 -14 -17 -15 0 -21 15
-6 15 -8 3 -17 -11 -8 -9 -9 10 -4 20 6 23 5 13 -6 -16 -16 -17 -33 -2 -23 8
5 10 -1 7 -20 -3 -14 -2 -29 3 -31 4 -3 6 -14 4 -24 -2 -10 3 -18 11 -18 10 0
11 4 3 14 -7 8 -8 13 -1 13 13 0 22 -25 14 -36 -4 -5 -6 -8 -3 -7 2 1 10 -5
19 -13 11 -12 12 -18 3 -27 -9 -9 -12 -9 -9 0 2 6 -1 10 -7 10 -5 -1 -10 -7
-11 -14 -1 -6 6 -10 17 -8 13 3 19 -2 19 -16 0 -10 5 -19 11 -19 8 0 8 -4 0
-14 -9 -11 -9 -16 0 -22 7 -4 9 -3 6 3 -3 5 1 10 10 10 12 0 10 -5 -8 -20 -18
-15 -19 -19 -5 -14 13 5 17 3 13 -7 -6 -15 16 -40 26 -30 8 9 3 -18 -7 -36 -5
-8 -6 -12 -1 -8 4 4 14 1 21 -7 18 -18 18 -31 0 -16 -11 9 -16 9 -22 0 -4 -7
-3 -10 2 -7 5 3 18 -4 29 -15 11 -11 15 -17 9 -14 -7 4 -9 -4 -6 -23 2 -18 9
-27 15 -23 6 4 8 0 4 -11 -5 -14 -3 -15 13 -6 17 9 19 8 13 -7 -3 -10 -10 -23
-15 -29 -11 -15 17 -38 34 -28 7 4 4 -3 -7 -16 l-20 -23 24 13 c13 6 21 7 17
2 -3 -6 -3 -12 1 -15 5 -2 3 -3 -3 -1 -6 1 -11 -4 -11 -12 0 -9 6 -13 16 -9
12 5 11 2 -3 -14 -13 -14 -14 -21 -5 -27 8 -4 10 -3 5 4 -4 7 -2 12 3 12 17 0
13 -18 -6 -30 -17 -11 -17 -11 1 -6 13 5 17 2 12 -9 -3 -8 -2 -15 3 -15 4 0 8
-7 8 -15 0 -12 -3 -12 -15 -2 -13 11 -14 9 -2 -13 13 -24 12 -24 -5 -10 -17
14 -18 13 -12 -2 3 -10 2 -18 -4 -18 -6 0 -8 -4 -4 -10 3 -5 -7 -3 -22 5 -19
10 -31 11 -40 3 -7 -6 -13 -7 -13 -2 0 5 -12 -4 -26 -21 -14 -16 -23 -24 -19
-17 3 6 1 12 -4 12 -6 0 -11 -5 -11 -11 0 -6 -7 -8 -16 -5 -9 4 -23 1 -30 -5
-11 -9 -14 -9 -14 0 0 7 -5 9 -10 6 -6 -4 -7 -11 -4 -17 4 -6 -3 -5 -16 2 -12
6 -24 9 -28 6 -3 -3 0 -6 6 -6 7 0 12 -8 11 -17 0 -11 -3 -13 -6 -5 -2 6 -9
12 -14 12 -6 0 -8 -4 -5 -8 2 -4 0 -14 -6 -22 -8 -12 -9 -12 -4 3 4 12 0 17
-14 17 -13 0 -18 -5 -14 -15 5 -13 2 -14 -20 -6 -16 7 -27 7 -31 0 -4 -5 -11
-6 -17 -3 -7 4 -8 2 -4 -5 4 -6 12 -9 17 -6 5 3 6 -1 2 -10 -3 -10 -8 -13 -12
-6 -17 26 -89 -6 -74 -34 3 -5 0 -4 -8 3 -15 14 -33 16 -25 3 3 -4 -3 -16 -13
-25 -13 -12 -21 -14 -26 -6 -3 5 -11 8 -16 5 -5 -4 -6 2 -2 12 7 17 6 17 -11
0 -10 -9 -22 -15 -27 -12 -5 4 -9 1 -9 -4 0 -6 -4 -10 -9 -9 -5 2 -17 -6 -25
-17 -13 -16 -15 -17 -10 -2 3 9 1 17 -5 17 -10 0 -15 -14 -12 -33 1 -5 -4 -5
-11 -1 -19 12 -39 14 -32 3 3 -5 -8 -9 -25 -9 -16 0 -33 -5 -36 -10 -4 -6 -10
-8 -15 -5 -5 3 -11 1 -15 -4 -3 -5 -14 -8 -25 -6 -12 2 -18 0 -15 -5 6 -9 24
-8 43 3 6 5 12 5 12 1 0 -3 7 -1 15 6 13 11 18 11 28 0 9 -10 9 -11 -1 -6 -7
4 -20 2 -29 -6 -9 -7 -19 -13 -22 -13 -3 0 -5 -4 -3 -9 2 -6 -2 -6 -10 0 -7 5
-20 9 -28 8 -8 -1 -21 -2 -27 -3 -7 0 -13 -9 -14 -18 0 -11 -3 -13 -6 -5 -2 6
-9 12 -14 12 -4 0 -6 -7 -3 -15 5 -11 2 -13 -10 -9 -9 4 -18 0 -22 -9 -3 -9
-11 -14 -18 -11 -7 3 -19 -2 -26 -11 -7 -8 -9 -15 -4 -15 4 0 -1 -7 -12 -16
-15 -13 -16 -15 -2 -10 12 3 15 1 12 -9 -3 -8 -13 -11 -21 -8 -13 5 -13 3 -4
-16 9 -17 9 -21 -1 -19 -9 2 -12 -7 -11 -25 1 -15 -2 -25 -7 -22 -6 4 -7 -1
-3 -11 5 -13 3 -15 -8 -9 -11 7 -12 6 -2 -6 16 -20 17 -31 3 -39 -9 -5 -9 -9
-1 -14 6 -4 11 -2 11 3 0 6 3 11 8 11 4 0 7 -11 7 -24 0 -20 -3 -22 -14 -13
-11 9 -11 5 2 -18 10 -21 12 -36 6 -48 -6 -10 -6 -17 -1 -17 6 0 12 -7 15 -14
4 -10 1 -13 -7 -10 -7 3 -13 -2 -13 -11 0 -11 6 -14 21 -9 17 4 18 3 6 -5 -15
-10 -22 -73 -7 -64 4 2 5 -8 2 -24 -4 -23 -4 -24 4 -8 9 19 10 19 10 -2 1 -12
-3 -25 -9 -28 -5 -3 -10 -11 -10 -16 0 -6 7 -3 16 5 17 18 28 21 20 7 -4 -5
-3 -11 1 -14 5 -2 3 -3 -2 -1 -6 1 -11 -14 -11 -32 0 -22 5 -33 12 -30 7 3 9
-5 6 -20 -2 -14 -9 -21 -16 -17 -6 4 -5 -1 3 -10 14 -17 26 -24 17 -9 -3 5 1
9 9 9 10 0 12 -4 5 -12 -6 -7 -5 -16 3 -25 8 -8 8 -11 1 -7 -7 4 -15 0 -18 -9
-9 -24 -7 -28 7 -16 10 9 13 4 12 -21 -1 -18 1 -36 3 -41 9 -17 8 -57 -2 -63
-5 -3 -6 -1 -2 5 3 6 3 13 -2 16 -4 2 -8 -8 -7 -23 0 -21 4 -27 15 -24 9 3 11
2 5 -4 -6 -4 -10 -15 -10 -23 1 -8 -2 -20 -7 -26 -4 -6 -1 -27 7 -47 14 -35
14 -37 -8 -57 -12 -12 -17 -20 -12 -18 6 2 12 -1 13 -7 2 -5 9 -19 15 -30 9
-18 9 -19 -7 -6 -9 8 -19 11 -23 7 -3 -3 -1 -6 5 -6 14 0 12 -49 -2 -69 -8
-11 -8 -13 2 -7 7 4 12 2 12 -8 0 -8 6 -17 13 -20 6 -3 2 -3 -10 0 -13 3 -23
1 -23 -5 0 -6 4 -10 9 -8 5 1 9 -2 9 -8 0 -5 -5 -9 -11 -7 -6 2 -5 -4 3 -12 8
-11 9 -16 1 -16 -6 0 -11 -5 -11 -11 0 -5 4 -8 9 -5 5 3 14 -1 20 -8 9 -11 9
-16 0 -22 -8 -4 -9 -3 -5 4 5 8 1 10 -9 6 -14 -6 -13 -9 4 -26 23 -20 29 -37
8 -20 -10 8 -12 5 -12 -14 1 -14 8 -30 16 -35 11 -7 11 -9 -3 -9 -9 0 -20 -5
-23 -10 -4 -6 -1 -9 7 -8 7 2 12 -3 10 -11 -2 -8 2 -27 7 -42 8 -22 6 -32 -5
-43 -15 -16 -19 -30 -5 -22 5 3 11 -5 13 -19 3 -15 1 -22 -5 -18 -6 4 -8 -2
-5 -14 3 -12 2 -27 -3 -34 -4 -7 -4 -20 0 -28 11 -21 2 -43 -12 -34 -7 3 -4
-3 6 -14 17 -19 17 -21 1 -27 -9 -4 -14 -9 -11 -12 3 -3 16 0 29 7 22 11 22
11 7 -7 -9 -10 -14 -25 -11 -33 3 -9 0 -11 -8 -6 -8 5 -11 4 -6 -3 3 -5 3 -12
-1 -15 -5 -2 -2 -2 5 0 9 2 11 -3 6 -19 -5 -17 -3 -20 10 -15 10 4 15 3 11 -3
-3 -6 -12 -10 -20 -10 -8 0 -17 -5 -21 -11 -4 -8 1 -9 17 -5 22 7 23 6 6 -7
-15 -12 -15 -16 -3 -20 8 -3 13 -14 11 -24 -2 -10 -4 -24 -4 -31 -1 -7 -5 -11
-9 -8 -5 3 -9 -1 -9 -8 0 -8 7 -12 16 -9 9 3 5 -4 -9 -16 l-25 -20 25 5 c14 2
19 1 12 -2 -9 -4 -10 -9 -2 -19 8 -10 8 -15 -1 -21 -7 -4 -9 -3 -6 3 3 5 0 10
-7 10 -11 0 -12 -4 -3 -18 6 -10 16 -15 22 -13 5 3 1 -2 -9 -10 -11 -9 -14
-16 -7 -16 7 0 9 -4 6 -10 -3 -5 -1 -10 6 -10 8 0 9 -4 0 -13 -8 -10 -7 -17 2
-26 9 -10 9 -15 0 -18 -7 -2 -9 -11 -6 -20 4 -10 2 -14 -5 -9 -6 3 -14 1 -18
-6 -4 -7 -4 -10 1 -6 13 12 33 -11 28 -32 -3 -11 -9 -20 -15 -20 -5 0 -4 10 2
23 11 21 11 21 -5 2 -13 -16 -13 -22 -2 -30 7 -5 13 -24 12 -42 0 -17 2 -30 6
-28 13 9 3 -51 -11 -63 -8 -7 -10 -12 -5 -11 22 3 29 -2 15 -11 -12 -8 -12
-10 5 -11 l20 0 -20 -9 c-13 -6 -15 -9 -5 -9 13 -1 13 -2 0 -11 -11 -7 -11
-10 -2 -10 10 0 10 -5 1 -21 -9 -17 -8 -20 2 -14 9 6 11 3 6 -8 -4 -12 -2 -14
11 -10 15 6 16 5 2 -12 -8 -10 -10 -16 -3 -12 6 4 15 3 18 -3 4 -6 1 -9 -6 -8
-6 2 -14 -3 -17 -11 -3 -8 0 -11 7 -7 15 9 14 -2 -1 -18 -11 -11 -15 -11 -26
3 -8 9 -10 10 -6 2 5 -11 3 -13 -9 -8 -9 3 -19 1 -23 -5 -4 -7 -3 -8 4 -4 7 4
12 3 12 -2 0 -18 -29 -21 -40 -4 -11 16 -11 16 -6 0 4 -14 0 -18 -21 -18 -14
0 -31 -7 -38 -17 -9 -13 -14 -13 -20 -3 -6 9 -4 11 5 5 9 -6 11 -4 6 4 -10 16
-21 5 -21 -22 -1 -13 -6 -21 -15 -19 -10 2 -11 0 -2 -11 10 -12 8 -14 -10 -12
-21 2 -23 -1 -21 -41 1 -38 -2 -44 -19 -44 -18 0 -19 -2 -7 -17 12 -14 12 -15
0 -9 -10 7 -12 3 -6 -13 4 -14 2 -21 -6 -21 -7 0 -4 -7 7 -15 16 -13 16 -14 2
-9 -19 7 -25 -11 -7 -21 7 -5 5 -13 -7 -26 -15 -17 -15 -19 0 -34 22 -22 20
-28 -3 -15 -29 15 -38 12 -15 -5 15 -11 16 -15 4 -15 -10 -1 -9 -4 5 -10 18
-8 18 -9 -5 -10 l-25 -1 25 -13 24 -14 -24 -5 -25 -4 24 -2 c19 -1 23 -5 19
-26 -4 -16 0 -29 10 -34 13 -7 11 -10 -7 -16 -21 -6 -21 -7 -4 -21 10 -7 14
-14 9 -14 -5 0 -2 -8 5 -17 10 -11 10 -14 2 -9 -7 4 -13 3 -13 -1 0 -5 6 -15
13 -22 9 -11 9 -13 0 -7 -7 4 -13 2 -13 -5 0 -7 8 -9 21 -6 16 4 18 3 8 -9 -6
-7 -16 -11 -23 -8 -6 3 0 -4 13 -16 21 -18 23 -24 12 -47 -11 -23 -10 -25 3
-14 12 10 14 9 9 -8 -3 -12 -10 -18 -16 -14 -6 4 -7 1 -1 -8 9 -14 10 -19 13
-40 0 -6 7 -9 15 -6 8 3 17 -1 20 -9 4 -10 2 -13 -7 -8 -9 6 -9 5 0 -8 7 -8
10 -18 6 -21 -3 -4 0 -7 8 -7 10 -1 8 -5 -5 -15 -11 -8 -15 -15 -8 -15 14 0
13 -120 -2 -139 -8 -11 -8 -13 2 -7 6 4 12 2 12 -3 0 -6 -6 -11 -12 -11 -9 0
-9 -3 -2 -8 6 -4 4 -13 -8 -24 -17 -17 -18 -17 -19 0 0 11 -2 12 -6 4 -3 -7 0
-19 7 -26 8 -10 8 -16 0 -21 -6 -3 -7 -11 -4 -17 4 -7 2 -8 -5 -4 -9 6 -9 12
1 24 12 15 11 16 -4 3 -10 -7 -16 -17 -13 -21 3 -4 -2 -11 -11 -14 -15 -6 -15
-8 2 -27 17 -19 17 -20 -1 -13 -13 5 -16 4 -11 -4 4 -7 1 -15 -8 -18 -9 -3
-13 -11 -9 -16 4 -7 -4 -9 -21 -6 -21 4 -24 3 -15 -8 9 -11 8 -14 -6 -14 -9 0
-15 -6 -13 -12 3 -7 -1 -19 -8 -26 -7 -7 -11 -21 -9 -32 3 -14 0 -18 -8 -13
-18 11 -47 11 -54 0 -3 -6 -1 -7 5 -3 7 4 12 2 12 -5 0 -8 5 -7 17 2 15 13 15
12 3 -8 -12 -18 -17 -20 -29 -10 -12 10 -14 9 -8 -7 6 -15 5 -16 -6 -8 -9 8
-17 8 -27 0 -12 -8 -12 -9 3 -4 11 4 16 2 11 -5 -3 -6 -15 -8 -26 -6 -16 5
-17 3 -6 -10 12 -14 11 -15 -8 -5 -17 9 -24 9 -33 -2 -6 -7 -8 -16 -4 -19 3
-4 1 -8 -5 -8 -31 -4 -62 -19 -62 -31 0 -6 6 -5 15 2 9 7 15 8 15 2 0 -12 -29
-24 -41 -16 -5 3 -9 0 -9 -6 0 -6 -8 -10 -17 -8 -11 2 -18 -3 -18 -14 0 -10
-7 -23 -15 -30 -12 -11 -12 -11 -2 4 9 11 10 18 2 23 -5 3 -10 2 -10 -4 0 -6
-7 -7 -17 -4 -11 4 -14 3 -9 -5 10 -17 -4 -15 -18 2 -8 11 -24 12 -63 7 -44
-6 -53 -5 -54 8 0 11 -2 12 -6 4 -7 -19 -23 -16 -44 9 -11 11 -19 17 -19 12 0
-6 6 -16 13 -23 10 -10 9 -11 -5 -6 -10 4 -18 13 -18 20 0 14 -17 15 -39 1
-10 -7 -13 -5 -9 5 4 11 -5 14 -43 13 -45 0 -49 2 -43 20 4 17 3 18 -5 6 -6
-9 -26 -15 -48 -15 -21 0 -45 -4 -53 -10 -13 -8 -13 -7 -1 8 8 10 11 20 7 24
-3 3 -6 1 -6 -5 0 -7 -7 -12 -16 -12 -9 0 -12 5 -8 12 4 7 3 8 -5 4 -8 -6 -9
-12 -2 -20 13 -16 4 -27 -15 -19 -8 3 -11 10 -7 17 3 6 -4 1 -17 -12 -12 -13
-25 -21 -28 -17 -4 3 0 10 8 15 8 6 11 10 5 10 -19 0 -38 -18 -31 -29 5 -7 1
-9 -9 -5 -9 4 -23 -2 -35 -16 -12 -14 -25 -20 -36 -16 -15 6 -15 4 -3 -11 12
-15 12 -16 -3 -10 -10 4 -18 2 -18 -4 0 -6 -8 -8 -17 -5 -15 5 -15 4 1 -9 21
-16 15 -19 -29 -16 -16 1 -16 -1 5 -10 l25 -12 -24 -6 c-16 -4 -25 -14 -26
-29 -1 -13 -7 -28 -14 -35 -10 -9 -11 -8 -6 8 5 16 5 17 -3 5 -6 -8 -9 -17 -6
-21 2 -4 0 -10 -6 -14 -6 -4 -7 -11 -4 -17 4 -6 6 -42 5 -80 -2 -46 2 -75 11
-86 9 -11 9 -14 1 -8 -8 4 -11 2 -8 -6 5 -12 18 -16 62 -20 7 -1 10 -5 7 -10
-3 -5 -9 -6 -14 -3 -5 3 -11 1 -14 -4 -4 -5 5 -8 18 -7 18 2 23 -1 18 -12 -4
-11 -2 -13 8 -7 9 5 11 4 6 -3 -4 -7 -2 -12 4 -12 6 0 9 -4 6 -9 -7 -11 17
-21 42 -16 11 2 19 -3 20 -11 1 -8 3 -21 4 -29 1 -8 5 -12 10 -9 5 3 6 9 4 13
-3 4 7 7 22 8 15 0 20 -1 11 -4 -20 -5 -32 -40 -14 -40 7 0 11 6 9 12 -3 6 2
12 10 12 8 0 13 -4 11 -8 -3 -3 4 -9 15 -12 11 -3 23 -1 26 4 7 12 24 11 24
-2 0 -5 -4 -7 -10 -4 -6 3 -7 -1 -4 -10 6 -14 8 -14 20 2 12 17 13 16 9 -4 -2
-13 2 -26 9 -30 16 -10 28 -41 18 -47 -13 -8 -6 -57 9 -67 10 -6 10 -9 2 -9
-20 0 -16 -40 5 -40 14 0 15 -2 2 -10 -14 -9 -7 -15 14 -11 5 1 4 -4 -2 -12
-16 -19 -3 -30 16 -14 13 10 14 8 7 -11 -6 -22 -5 -23 15 -12 13 7 20 8 16 2
-4 -6 2 -15 11 -21 10 -6 13 -11 8 -11 -6 0 -16 5 -22 11 -8 8 -13 7 -18 -3
-5 -7 -5 -10 -1 -6 10 8 47 -23 40 -34 -3 -5 -2 -8 3 -7 20 3 34 -2 28 -11 -3
-6 1 -7 10 -4 8 4 23 0 32 -7 14 -12 16 -12 9 1 -4 8 1 4 12 -9 11 -13 24 -21
31 -17 10 6 15 -6 12 -26 0 -5 4 -8 10 -8 6 0 9 6 6 14 -3 8 2 20 11 28 15 12
16 11 3 -4 -9 -13 -10 -18 -2 -18 7 0 9 -4 6 -10 -3 -6 -3 -10 2 -11 4 0 20
-2 35 -4 22 -3 26 0 20 13 -5 15 -3 14 13 -1 14 -14 15 -21 6 -27 -10 -5 -9
-9 4 -13 9 -4 14 -3 11 1 -2 4 -1 14 5 22 7 13 9 12 9 -2 0 -11 5 -15 15 -12
10 4 15 0 16 -12 0 -18 1 -17 9 1 6 14 9 16 10 5 2 -8 2 -19 1 -23 -1 -5 3 -6
8 -3 5 4 8 16 6 28 -3 11 -1 17 3 14 7 -7 8 -12 11 -38 0 -6 4 -8 8 -5 3 4 15
0 25 -9 15 -14 20 -15 34 -3 15 12 16 11 11 -11 -4 -14 -4 -19 -1 -12 7 14 64
17 64 2 0 -5 5 -10 11 -10 5 0 8 4 4 9 -3 5 -1 13 5 16 6 4 9 1 8 -6 -2 -6 10
-13 27 -15 90 -11 105 -11 100 -4 -3 5 0 12 6 16 8 4 9 3 5 -4 -4 -7 -2 -12 4
-12 6 0 8 -6 5 -12 -4 -7 1 -4 9 6 16 19 16 19 16 -5 0 -13 4 -19 8 -13 4 5
17 10 29 10 18 0 20 -3 10 -15 -10 -12 -8 -14 10 -9 12 3 22 3 21 -1 -2 -11
14 -41 22 -41 5 0 6 10 4 23 -2 12 2 6 10 -13 12 -30 21 -34 17 -8 0 4 6 5 15
1 13 -5 13 -7 2 -14 -10 -7 -10 -9 2 -9 13 0 13 -1 0 -10 -11 -7 -11 -10 -2
-10 7 0 10 -5 6 -12 -4 -7 -3 -8 5 -4 6 4 8 12 5 18 -5 8 -1 9 12 4 10 -5 24
-9 31 -9 7 0 10 -4 7 -8 -2 -4 4 -12 13 -18 10 -6 12 -11 6 -11 -7 0 -13 -7
-13 -16 0 -9 5 -12 13 -8 8 6 8 3 -1 -9 -8 -9 -10 -22 -6 -28 5 -8 3 -9 -5 -5
-8 6 -11 2 -9 -10 2 -15 -3 -19 -22 -17 -14 1 -19 -1 -12 -3 6 -3 9 -11 6 -16
-5 -7 -2 -8 7 -3 8 5 2 -3 -13 -18 -33 -31 -35 -37 -8 -32 12 2 18 0 15 -6 -4
-5 -10 -7 -14 -5 -4 3 -11 2 -16 -2 -14 -10 -38 -55 -26 -47 15 9 14 -1 -4
-34 -8 -16 -11 -31 -8 -35 4 -3 1 -6 -6 -6 -14 0 -11 31 4 42 5 4 6 10 2 14
-12 12 -22 -8 -26 -49 -1 -5 -6 -5 -13 -1 -6 4 -8 3 -4 -4 3 -6 2 -13 -3 -16
-5 -4 -8 -20 -6 -37 3 -22 1 -29 -9 -26 -7 3 -13 -1 -13 -9 0 -7 5 -10 11 -7
6 4 2 -4 -8 -16 -17 -18 -17 -21 -3 -15 9 3 17 2 17 -4 0 -6 -11 -9 -25 -7
-19 2 -23 -1 -15 -10 8 -9 7 -14 -1 -17 -13 -4 -22 -38 -10 -38 5 0 7 -17 6
-37 -1 -21 -6 -38 -12 -38 -6 0 -15 -4 -20 -9 -4 -5 -3 -6 4 -2 6 3 15 1 19
-5 5 -8 9 -8 14 1 5 9 9 9 14 1 4 -6 2 -11 -4 -11 -6 0 -8 -12 -5 -31 4 -22 2
-28 -6 -23 -8 4 -9 3 -5 -5 4 -6 11 -9 16 -6 4 3 10 -2 14 -10 3 -8 -3 -19
-12 -25 -14 -9 -13 -10 7 -4 15 4 21 2 17 -4 -8 -14 23 -44 36 -36 7 5 8 2 4
-5 -9 -14 22 -53 35 -45 5 3 9 1 9 -5 0 -6 7 -7 17 -4 11 4 14 3 9 -5 -4 -7
-2 -12 4 -12 6 0 8 -5 4 -12 -4 -7 -3 -8 4 -4 6 4 9 13 6 20 -3 8 0 17 6 21 6
3 10 3 9 -2 -1 -4 0 -17 1 -28 2 -17 3 -17 10 5 8 25 8 25 9 2 1 -19 5 -22 21
-17 16 5 19 3 14 -12 -5 -14 -4 -15 4 -3 6 8 8 18 6 22 -10 15 9 8 23 -9 13
-16 14 -16 8 7 -5 21 -4 22 5 7 7 -11 21 -16 38 -15 15 1 34 -2 41 -7 10 -6
12 -4 6 5 -5 9 -1 11 16 6 13 -3 18 -3 11 0 -10 5 -10 9 -1 20 14 17 29 18 29
3 0 -5 -5 -7 -12 -3 -7 5 -8 3 -3 -5 5 -9 12 -7 25 7 11 11 29 18 44 17 19 -2
23 1 19 13 -5 11 -3 13 6 7 8 -4 16 -3 20 4 4 6 19 12 33 13 20 2 25 7 22 21
-3 15 -1 17 11 7 12 -10 15 -9 15 8 0 12 4 24 10 27 6 4 7 -1 3 -12 -5 -14 -3
-16 7 -6 14 13 40 7 40 -9 0 -7 -5 -6 -13 1 -10 8 -14 7 -14 -4 0 -8 3 -12 7
-10 3 2 14 -5 23 -16 11 -13 13 -19 4 -19 -8 0 -7 -3 3 -9 8 -6 17 -8 20 -6 4
2 7 -2 7 -10 0 -11 -5 -12 -21 -3 -19 10 -20 9 -8 -5 8 -9 11 -21 7 -26 -4 -7
0 -8 11 -4 14 5 15 3 4 -17 -7 -12 -8 -20 -2 -17 5 4 14 -5 21 -19 13 -29 15
-57 3 -50 -5 3 -9 -1 -9 -9 0 -8 4 -12 9 -9 4 3 8 -13 8 -35 0 -21 5 -41 11
-43 6 -2 12 -15 13 -28 1 -15 7 -24 15 -22 7 1 10 -2 6 -8 -4 -6 -16 -8 -28
-5 -19 5 -20 4 -5 -5 10 -6 15 -17 11 -27 -5 -13 -2 -15 18 -10 l24 6 -25 -19
c-14 -10 -21 -22 -17 -26 4 -4 7 -2 7 4 0 12 34 11 46 -1 4 -3 -3 -5 -15 -2
-11 2 -21 0 -21 -6 0 -5 5 -9 10 -9 6 0 10 -7 10 -16 0 -9 5 -12 12 -8 6 4 8
3 4 -4 -3 -6 -15 -9 -26 -7 -12 2 -18 0 -15 -6 4 -5 10 -7 15 -4 4 3 14 -3 21
-12 12 -15 12 -16 -5 -10 -16 6 -17 5 -6 -8 7 -8 9 -15 4 -15 -4 0 1 -7 12
-16 10 -8 13 -12 5 -8 -10 5 -11 1 -6 -16 5 -17 4 -21 -6 -15 -8 3 -3 -3 10
-15 20 -17 25 -30 24 -67 -1 -33 2 -42 10 -34 6 6 15 11 21 11 5 0 -2 -10 -15
-21 l-24 -21 25 7 c20 6 23 5 13 -5 -9 -10 -9 -16 2 -27 8 -7 12 -20 9 -28 -4
-8 -1 -15 5 -15 6 0 11 -5 11 -11 0 -5 -4 -8 -8 -5 -4 2 -9 -4 -9 -15 -1 -10
3 -19 8 -19 6 0 7 5 4 10 -3 6 -1 10 4 10 6 0 12 -4 12 -10 1 -5 2 -16 3 -22
1 -7 0 -17 -3 -23 -3 -5 -6 -20 -6 -32 -1 -18 2 -20 14 -10 12 10 13 9 3 -10
-8 -14 -9 -24 -2 -28 6 -4 8 -11 4 -16 -3 -5 -2 -9 3 -8 4 1 14 1 22 0 12 -1
12 -3 -2 -13 -14 -12 -14 -15 -1 -33 8 -11 18 -19 22 -17 4 2 8 -5 9 -15 2
-15 1 -15 -7 2 -9 17 -9 15 -4 -9 3 -17 13 -36 22 -44 16 -13 16 -13 -2 -8
-15 5 -17 4 -8 -7 7 -8 9 -17 5 -20 -3 -4 0 -7 8 -7 11 0 11 -2 -1 -10 -11 -7
-11 -10 -2 -10 7 0 10 -5 6 -12 -4 -6 -3 -8 3 -5 7 4 10 -7 9 -30 0 -21 4 -38
12 -40 6 -3 12 0 12 7 0 6 -5 8 -12 4 -7 -4 -8 -3 -4 5 9 14 28 4 24 -12 -1
-7 3 -21 9 -33 10 -16 9 -21 -2 -21 -7 0 -11 6 -8 12 2 7 -4 16 -14 19 -14 6
-15 4 -6 -5 6 -6 9 -18 6 -25 -3 -9 2 -14 14 -14 16 0 20 -7 20 -35 0 -20 6
-41 13 -48 10 -10 11 -9 5 3 -5 8 -5 12 0 8 4 -4 8 -31 10 -60 2 -57 11 -88
27 -88 6 0 5 6 -2 15 -8 9 -8 15 -2 15 15 0 20 -22 11 -47 -5 -14 -4 -25 3
-29 7 -5 8 -3 3 6 -6 9 -4 11 4 5 9 -5 10 -10 2 -18 -21 -21 -11 -30 11 -11
l22 19 -22 -31 c-21 -30 -20 -44 2 -44 6 0 5 4 -2 9 -11 6 -10 10 0 19 11 9
14 6 15 -11 1 -12 -3 -25 -10 -30 -7 -5 -3 -7 12 -3 18 4 21 2 12 -7 -16 -16
-14 -57 3 -57 20 0 29 -17 15 -26 -8 -5 -9 -3 -4 7 8 12 6 12 -8 0 -9 -7 -17
-16 -17 -19 0 -3 3 -2 6 1 4 3 15 2 26 -4 11 -6 17 -13 14 -16 -3 -4 0 -13 7
-22 11 -14 10 -15 -7 -1 -18 14 -19 14 -7 -7 9 -18 9 -23 -1 -23 -7 0 -1 -8
12 -17 14 -10 30 -16 35 -15 6 2 5 -2 -2 -9 -10 -10 -16 -9 -30 2 -17 13 -17
13 0 -7 9 -11 14 -25 10 -29 -5 -5 -1 -4 8 3 13 10 19 9 30 -5 13 -16 12 -17
-3 -4 -16 12 -18 11 -18 -2 0 -8 -6 -18 -12 -21 -7 -3 -3 -3 10 0 20 5 21 3
12 -22 -9 -24 -9 -25 5 -14 8 7 18 10 22 6 3 -3 1 -6 -6 -6 -9 0 -9 -5 0 -22
11 -21 11 -22 -5 -9 -14 12 -16 12 -10 -3 3 -9 11 -16 18 -17 6 0 2 -4 -9 -9
-19 -8 -19 -9 3 -9 21 -1 65 -31 45 -31 -5 0 -14 5 -19 10 -7 7 -11 6 -11 -5
0 -14 11 -20 32 -15 6 1 7 -2 3 -6 -4 -4 -3 -13 4 -21 6 -8 7 -13 2 -12 -21 4
-35 -2 -29 -11 4 -6 10 -8 15 -5 5 3 12 0 16 -6 4 -7 3 -9 -2 -6 -6 3 -16 -3
-23 -15 -10 -16 -10 -19 1 -12 21 13 35 13 35 -1 0 -7 -7 -11 -16 -8 -12 4
-12 1 2 -10 12 -10 14 -17 8 -22 -6 -3 -11 -12 -11 -18 0 -7 4 -6 11 3 8 12 9
7 6 -17 -3 -25 0 -33 12 -33 14 0 14 -1 1 -10 -13 -9 -13 -10 0 -10 11 0 15
-9 14 -27 0 -16 6 -34 15 -41 9 -8 11 -11 4 -8 -19 10 -24 -11 -6 -25 9 -8 14
-9 10 -3 -4 7 0 14 8 17 10 4 12 1 8 -10 -5 -12 -2 -14 8 -9 8 4 6 1 -4 -7
-15 -13 -16 -19 -7 -36 6 -12 13 -21 16 -21 2 0 -1 10 -7 23 -8 16 -8 19 0 11
6 -6 13 -20 16 -32 3 -16 0 -19 -12 -15 -14 5 -14 4 0 -18 8 -13 14 -34 13
-46 -2 -12 1 -20 6 -17 5 4 7 13 4 21 -3 8 -1 11 4 8 6 -3 7 -17 4 -30 -6 -25
17 -61 31 -47 4 4 6 2 5 -3 -1 -6 -1 -12 0 -15 7 -19 5 -48 -4 -46 -6 2 -8 1
-3 -1 4 -3 5 -9 2 -14 -4 -5 1 -6 9 -3 11 4 13 0 9 -14 -2 -11 1 -23 8 -27 8
-6 10 -4 4 5 -6 9 -4 11 5 5 10 -6 9 -11 -5 -22 -11 -7 -13 -13 -6 -13 7 0 9
-5 5 -13 -5 -7 0 -6 11 3 12 10 16 10 11 2 -4 -7 -3 -19 3 -26 8 -9 7 -13 -4
-13 -8 0 -11 5 -8 10 3 6 1 7 -6 3 -15 -10 -4 -26 17 -26 15 0 15 -2 2 -11
-12 -8 -10 -10 10 -5 l25 5 -22 -18 c-21 -17 -21 -31 -1 -31 5 0 6 5 3 10 -3
6 -1 10 5 10 7 0 10 -7 7 -15 -4 -8 -2 -17 4 -21 6 -3 8 -13 5 -21 -4 -10 -2
-13 8 -10 11 5 13 0 6 -25 -8 -25 -7 -29 6 -24 8 3 13 2 10 -3 -3 -5 0 -14 8
-20 8 -7 12 -21 9 -32 -5 -16 -8 -17 -22 -7 -14 12 -15 11 -2 -5 8 -10 20 -16
26 -13 9 3 11 -3 8 -17 -4 -18 -3 -19 6 -7 6 8 11 10 11 4 0 -5 -6 -16 -12
-23 -11 -10 -9 -14 5 -22 9 -6 15 -14 12 -19 -9 -15 17 -23 27 -9 8 11 9 10 4
-3 -3 -10 -2 -20 3 -22 4 -3 6 -19 3 -36 -3 -19 0 -30 7 -30 7 0 9 5 6 10 -10
16 1 11 16 -7 8 -9 9 -14 3 -10 -7 4 -14 0 -18 -8 -3 -8 -1 -17 5 -21 6 -3 8
-12 5 -20 -3 -8 0 -11 10 -7 13 5 13 8 -2 24 -9 11 -14 19 -9 19 17 0 33 -35
24 -52 -7 -12 -6 -18 1 -18 6 0 8 -4 5 -10 -4 -6 1 -7 12 -3 10 3 15 3 11 -2
-4 -4 -3 -14 3 -22 9 -10 8 -13 0 -13 -7 0 -9 -5 -6 -10 4 -6 11 -8 16 -4 5 3
8 0 7 -8 -2 -7 3 -12 10 -10 8 1 11 -2 7 -7 -3 -6 -13 -7 -22 -4 -15 6 -16 5
-3 -9 8 -9 18 -14 21 -12 4 2 9 -3 13 -11 3 -8 -2 -18 -11 -23 -14 -8 -13 -10
1 -15 10 -4 15 -3 11 3 -3 6 -1 10 4 10 6 0 11 -9 11 -21 0 -13 4 -18 13 -13
7 5 6 0 -3 -11 -12 -15 -12 -17 -1 -10 11 6 13 2 9 -18 -4 -21 -2 -25 14 -22
19 4 19 3 3 -22 -9 -14 -12 -22 -6 -19 6 4 11 0 11 -8 0 -18 11 -21 26 -6 7 7
11 6 11 -4 0 -8 -3 -15 -6 -14 -24 2 -31 -5 -11 -11 18 -5 24 -13 22 -27 -2
-10 -5 -23 -5 -28 -1 -5 9 -15 23 -23 14 -7 19 -13 12 -13 -7 0 -10 -5 -7 -10
4 -6 11 -7 17 -4 6 4 6 -2 -1 -15 -10 -17 -9 -21 4 -21 8 0 15 -7 15 -16 0 -8
4 -13 8 -10 5 3 9 -1 9 -9 0 -8 -3 -12 -7 -10 -3 2 -7 -5 -7 -16 -1 -12 5 -19
15 -19 15 0 15 2 2 11 -12 9 -12 10 -1 7 22 -6 25 -28 4 -29 -14 0 -14 -2 -3
-6 18 -7 45 -33 34 -33 -4 0 1 -10 12 -21 19 -22 19 -22 -3 -10 -13 6 -23 17
-23 23 0 6 -3 8 -6 5 -4 -4 -2 -13 4 -20 7 -8 8 -17 4 -21 -4 -4 0 -6 8 -4 10
2 14 -5 14 -25 -1 -19 3 -27 12 -23 8 3 11 0 7 -9 -3 -8 -10 -12 -17 -8 -6 4
-5 -1 3 -10 15 -18 26 -23 16 -7 -3 6 -2 10 4 10 11 0 10 -74 -1 -86 -4 -3 -5
3 -3 15 2 12 0 19 -5 16 -5 -3 -7 -14 -5 -25 2 -11 -1 -20 -7 -20 -5 0 3 -12
18 -27 30 -29 43 -63 24 -63 -6 0 -9 4 -5 9 3 5 2 12 -2 14 -5 3 -9 -8 -9 -24
-2 -26 0 -28 15 -17 14 12 14 11 2 -4 -7 -10 -18 -15 -23 -12 -6 4 -8 -6 -5
-25 3 -18 1 -29 -4 -25 -5 3 -6 10 -3 16 4 7 2 8 -4 4 -6 -4 -8 -14 -5 -23 5
-12 3 -14 -7 -8 -10 6 -12 4 -7 -8 5 -12 1 -17 -12 -17 -21 0 -35 -25 -24 -43
4 -7 -2 -5 -12 3 -17 14 -18 13 -12 -2 4 -12 2 -18 -7 -18 -7 0 -19 -7 -26
-15 -11 -13 -10 -14 5 -9 13 5 16 4 11 -4 -4 -7 -14 -12 -22 -12 -8 0 -14 -5
-14 -11 0 -5 5 -7 12 -3 6 4 8 3 4 -4 -3 -6 -16 -9 -29 -7 -22 4 -22 4 -2 -12
18 -14 18 -15 1 -9 -13 5 -17 2 -13 -8 4 -11 1 -13 -10 -9 -12 5 -14 3 -8 -7
6 -10 4 -12 -9 -7 -14 5 -15 3 -6 -13 8 -15 8 -18 -4 -14 -7 3 -22 -6 -33 -20
-11 -14 -24 -22 -28 -18 -5 4 -5 1 0 -7 4 -8 2 -17 -6 -23 -10 -7 -7 -8 11 -4
14 3 19 3 12 0 -6 -3 -10 -10 -6 -15 3 -5 2 -9 -3 -8 -19 3 -33 -2 -33 -12 0
-5 5 -7 11 -4 6 4 5 -2 -3 -14 -7 -12 -17 -21 -22 -21 -4 0 -3 6 3 14 9 11 9
16 0 22 -7 4 -9 3 -5 -4 3 -6 2 -13 -4 -17 -5 -3 -10 -13 -10 -21 0 -8 4 -13
9 -9 5 3 13 0 17 -7 4 -7 4 -10 -1 -6 -4 4 -14 3 -21 -3 -8 -6 -21 -8 -30 -5
-13 5 -14 3 -6 -6 7 -10 4 -20 -14 -41 -13 -15 -24 -24 -24 -19 0 5 -6 9 -13
9 -8 0 -14 -6 -14 -13 0 -7 4 -11 9 -8 4 3 8 0 8 -5 0 -6 -7 -11 -15 -11 -8 0
-15 5 -15 12 0 6 -3 8 -6 5 -4 -4 -1 -13 5 -21 11 -13 9 -15 -8 -11 -17 3 -19
1 -11 -20 6 -15 6 -27 -1 -30 -5 -4 -7 -10 -4 -15 3 -4 -4 -6 -14 -3 -11 3
-28 0 -38 -7 -16 -10 -16 -11 0 -6 9 3 17 1 17 -4 0 -6 -4 -10 -10 -10 -5 0
-9 -6 -7 -13 1 -6 -6 -11 -15 -9 -13 2 -16 -2 -11 -14 4 -10 2 -15 -4 -11 -12
7 -44 -28 -35 -39 4 -5 -2 -2 -12 6 -17 13 -18 13 -11 1 6 -11 4 -13 -8 -8
-12 4 -14 2 -10 -10 5 -12 3 -14 -8 -8 -11 7 -11 5 1 -10 14 -17 13 -18 -2
-12 -13 4 -15 2 -11 -10 4 -11 2 -14 -5 -9 -7 4 -12 2 -12 -4 0 -6 -8 -14 -17
-17 -22 -8 -68 -55 -65 -66 1 -4 -7 -3 -18 3 -16 9 -20 8 -20 -6 0 -10 -5 -14
-14 -11 -10 4 -14 0 -11 -13 2 -10 -4 -25 -13 -32 -15 -11 -15 -11 -4 3 10 14
10 18 -3 22 -8 4 -14 3 -14 -1 3 -19 -2 -33 -10 -27 -5 3 -13 0 -17 -6 -5 -8
-3 -9 6 -4 9 5 11 4 6 -3 -4 -7 -12 -12 -17 -12 -11 0 -39 -25 -39 -35 0 -3 6
-3 12 1 10 5 10 4 1 -6 -10 -10 -15 -11 -27 -1 -11 9 -16 9 -22 0 -4 -7 -3 -9
3 -6 6 4 13 0 17 -8 6 -16 -9 -29 -36 -31 -30 -2 -31 -3 -17 -21 10 -14 8 -13
-10 2 -14 11 -21 14 -17 8 5 -9 0 -13 -13 -13 -11 0 -23 -5 -26 -10 -4 -6 -11
-7 -17 -4 -7 5 -8 2 -3 -6 6 -10 3 -12 -14 -7 -17 4 -20 3 -12 -7 11 -13 5
-26 -11 -26 -5 0 -6 5 -2 12 5 7 3 8 -7 2 -8 -5 -17 -9 -21 -9 -3 0 -10 -4
-15 -9 -5 -5 -3 -6 5 -2 18 11 15 -9 -5 -27 -23 -20 -34 -22 -45 -5 -6 9 -7 5
-3 -11 5 -16 4 -21 -4 -17 -6 4 -11 3 -11 -3 0 -5 6 -12 13 -14 6 -3 -3 -4
-20 -2 -33 4 -45 -8 -20 -19 6 -3 0 -4 -15 -2 -18 2 -25 -1 -20 -8 3 -6 8 -20
9 -31 2 -17 0 -16 -13 5 -8 14 -13 17 -10 8 4 -13 -1 -18 -17 -19 -17 -1 -18
-2 -4 -6 9 -2 17 -8 17 -13 0 -8 -38 -23 -52 -21 -5 1 -7 -2 -7 -7 1 -4 0 -10
-1 -14 -4 -12 -7 -27 -9 -38 0 -5 -8 -6 -18 -3 -10 4 -14 2 -9 -5 3 -6 2 -14
-4 -17 -8 -5 -7 -12 2 -23 11 -13 11 -14 -1 -7 -11 6 -13 4 -8 -8 4 -10 1 -17
-6 -17 -8 0 -7 -4 3 -10 12 -8 12 -10 -3 -16 -9 -3 -17 -10 -17 -16 0 -5 4 -7
9 -4 5 3 15 -2 22 -12 12 -15 12 -16 -1 -5 -10 8 -21 9 -30 3 -10 -7 -11 -10
-2 -10 6 0 12 -5 12 -11 0 -6 -6 -9 -13 -6 -10 4 -13 -2 -9 -18 3 -19 0 -23
-14 -21 -11 2 -13 1 -6 -1 15 -5 16 -20 1 -28 -7 -5 -4 -14 8 -28 10 -11 12
-17 6 -13 -16 9 -16 1 -1 -27 10 -21 10 -21 -7 -7 -17 14 -17 14 0 -20 10 -20
12 -30 4 -23 -7 7 -18 13 -23 13 -6 0 -4 -5 4 -10 13 -9 13 -11 0 -21 -12 -8
-10 -9 8 -4 12 4 22 2 22 -4 0 -5 -8 -11 -17 -13 -13 -2 -17 -14 -18 -48 -1
-25 3 -51 8 -57 5 -7 6 -13 3 -13 -4 0 -1 -10 5 -22 11 -21 11 -22 -4 -9 -25
20 -21 -4 3 -27 18 -17 19 -21 5 -32 -8 -7 -12 -17 -8 -24 4 -6 -2 -4 -12 4
-17 14 -18 14 -7 -6 6 -12 8 -25 4 -29 -4 -5 1 -5 11 -2 9 4 17 2 17 -3 0 -5
-7 -10 -17 -12 -14 -3 -14 -5 2 -18 15 -12 17 -12 10 -1 -10 18 52 -18 68 -39
11 -13 10 -13 -8 0 -19 14 -19 14 -6 -3 9 -11 18 -14 24 -8 11 11 37 3 37 -11
0 -6 -8 -5 -17 3 -15 11 -16 11 -6 -1 16 -17 83 -22 103 -6 13 9 13 9 3 -5
-13 -16 -8 -29 9 -29 5 0 6 4 3 10 -3 5 -1 10 4 10 6 0 11 -4 11 -10 0 -5 5
-10 11 -10 5 0 8 4 4 9 -3 5 0 13 6 17 8 4 9 3 5 -4 -4 -7 -2 -12 4 -12 6 0 9
-4 5 -9 -3 -6 6 -8 21 -5 19 3 24 1 18 -8 -4 -8 -3 -10 2 -5 5 5 9 13 9 18 0
5 4 8 10 7 5 -2 9 -6 8 -10 -4 -11 26 -17 33 -6 4 6 3 8 -3 5 -5 -3 -10 1 -10
10 0 11 8 8 26 -13 13 -16 22 -21 18 -11 -8 21 -1 22 18 3 8 -7 11 -16 8 -20
-4 -3 -1 -6 5 -6 16 0 15 27 0 33 -7 3 -3 4 9 4 13 -1 22 -7 20 -13 -1 -7 3
-13 8 -13 6 -1 10 4 10 11 0 6 7 13 15 15 13 4 13 3 0 -6 -13 -10 -8 -15 12
-12 4 0 5 -6 2 -14 -4 -8 -1 -15 6 -15 6 0 9 4 5 9 -3 5 2 16 10 25 13 12 20
13 35 4 11 -7 17 -14 15 -17 -3 -2 -11 1 -18 7 -14 12 -27 7 -27 -10 0 -5 4
-6 10 -3 5 3 19 1 30 -5 11 -6 20 -7 19 -3 -3 20 2 27 10 14 8 -12 12 -12 25
-2 14 11 16 11 17 -5 0 -15 2 -16 7 -4 8 17 52 23 52 7 0 -6 3 -7 6 -4 4 3 16
1 28 -5 19 -10 20 -10 7 6 -8 9 -11 19 -7 23 3 3 6 1 6 -6 0 -7 4 -9 10 -6 6
3 10 1 10 -4 0 -6 5 -11 11 -11 5 0 8 3 6 8 -3 4 6 8 20 9 18 1 22 -2 14 -10
-6 -6 -11 -16 -11 -22 0 -5 5 -2 11 7 5 10 15 18 20 18 6 0 7 -6 3 -12 -5 -9
-2 -9 9 1 9 7 17 10 17 5 0 -4 5 -3 12 4 7 7 16 12 22 12 6 0 5 -5 -2 -12 -7
-7 -12 -17 -12 -23 0 -5 10 4 21 20 18 26 20 27 16 7 -5 -20 -3 -21 10 -10 9
7 19 11 22 10 28 -17 41 -22 40 -15 -3 19 2 27 9 15 5 -7 18 -14 31 -17 13 -2
19 0 15 7 -4 6 2 8 17 3 19 -5 21 -4 9 4 -13 9 -13 11 3 11 9 0 17 -7 17 -16
0 -14 1 -14 16 0 14 14 18 14 42 -2 14 -9 23 -12 19 -6 -4 7 0 17 8 24 12 10
16 9 21 -4 6 -15 36 -17 50 -3 12 11 42 8 47 -5 3 -8 6 -6 6 5 1 20 12 22 30
4 11 -10 13 -9 8 4 -3 11 1 15 16 14 11 -1 23 -7 25 -15 3 -8 0 -10 -8 -5 -9
5 -11 4 -6 -4 11 -17 29 -2 23 19 -3 13 0 17 9 13 8 -3 12 -9 9 -13 -3 -5 3
-8 14 -7 15 1 17 4 9 14 -6 8 -8 16 -4 20 3 3 6 1 6 -5 0 -7 7 -12 16 -12 9 0
12 5 8 12 -4 6 -3 8 4 4 6 -3 9 -15 7 -26 -2 -12 0 -18 6 -15 5 4 9 13 9 20 0
9 6 12 15 9 9 -4 15 0 15 7 0 11 2 11 9 -1 6 -8 7 -19 5 -25 -3 -5 3 0 14 12
21 24 34 21 26 -5 -3 -10 2 -6 10 8 10 16 15 19 16 10 0 -12 2 -13 9 -1 7 11
9 11 14 0 4 -11 7 -12 18 -1 16 15 33 16 24 1 -4 -6 2 -5 13 2 12 7 18 18 14
24 -3 6 0 5 9 -1 8 -6 35 -11 61 -11 38 0 45 3 41 16 -4 14 -3 14 5 1 10 -14
75 -23 67 -9 -3 3 5 15 18 25 18 16 19 16 8 2 -8 -11 -9 -18 -3 -18 6 0 14 5
17 10 3 6 11 10 16 10 6 0 7 -5 3 -12 -4 -7 -3 -8 5 -4 6 4 9 11 6 16 -3 4 2
10 9 13 8 3 17 1 20 -6 4 -7 4 -2 2 11 -2 12 0 20 5 16 5 -3 9 -12 9 -20 0
-15 16 -19 24 -5 3 5 17 11 31 13 22 5 24 3 13 -11 -6 -9 0 -4 14 10 18 18 35
25 53 24 21 -3 25 0 20 13 -3 9 -3 13 1 9 11 -10 35 13 27 27 -3 6 4 2 17 -9
19 -16 22 -17 17 -3 -6 17 15 20 30 3 4 -4 2 -5 -6 0 -10 5 -12 4 -7 -4 4 -6
12 -9 17 -5 5 3 7 10 3 15 -3 6 2 9 12 7 12 -2 19 3 18 12 -1 11 9 17 30 18
22 2 27 0 16 -7 -8 -5 -18 -7 -24 -4 -5 3 -6 1 -2 -5 8 -13 32 -4 66 26 21 17
58 23 66 10 8 -13 21 -9 21 7 0 8 -4 12 -9 9 -15 -9 -8 1 11 18 17 14 20 14
25 2 4 -10 2 -12 -6 -8 -7 4 -8 3 -4 -5 10 -16 29 -2 21 17 -5 13 -2 12 15 -3
11 -10 23 -15 27 -12 3 4 2 7 -4 7 -5 0 -10 7 -10 15 0 13 4 12 20 -2 19 -17
20 -17 14 -1 -4 12 -2 15 8 11 8 -3 12 -10 8 -16 -3 -6 -1 -7 5 -3 7 4 12 15
12 24 0 15 2 15 10 2 5 -8 10 -10 10 -4 0 16 44 23 65 11 15 -8 15 -6 6 12
-14 25 -8 27 13 6 15 -15 46 -11 46 7 0 6 -7 5 -15 -2 -13 -11 -14 -10 -9 4 8
21 30 21 43 -2 7 -11 10 -12 11 -3 0 8 6 11 16 7 8 -3 12 -2 9 4 -9 14 18 12
35 -3 11 -9 11 -8 0 7 -14 18 -13 19 4 13 16 -6 17 -5 6 8 -11 13 -10 14 4 9
9 -3 16 -10 16 -15 0 -5 5 -9 11 -9 6 0 8 9 4 23 -5 20 -5 20 5 4 10 -16 14
-17 28 -4 10 8 36 15 60 15 74 1 75 1 68 20 -5 14 -4 14 9 -2 13 -17 15 -17
15 -4 0 9 5 20 12 24 7 4 8 3 4 -4 -5 -8 0 -11 16 -8 13 3 30 5 39 5 10 1 16
9 15 18 -1 13 6 18 22 17 18 -1 20 1 11 13 -10 11 -8 12 7 6 16 -6 17 -5 6 9
-10 13 -10 18 -1 24 7 4 9 3 6 -3 -4 -6 1 -14 10 -17 10 -4 14 -4 10 0 -4 4
-2 13 4 20 7 8 6 14 -2 20 -8 5 -9 3 -4 -6 5 -9 4 -11 -4 -6 -15 10 -5 26 17
26 13 0 13 2 -4 15 -19 14 -19 14 1 15 16 0 17 2 5 10 -8 5 -11 12 -7 16 4 4
1 14 -6 22 -9 13 -9 14 1 8 15 -9 15 -5 2 30 -9 24 -9 26 5 14 14 -11 15 -10
7 11 -12 31 -12 40 -1 62 7 11 6 17 -1 17 -6 0 -8 5 -5 10 4 6 1 18 -7 27 -9
11 -9 14 -1 9 21 -12 9 73 -13 89 -16 13 -16 14 -2 9 30 -10 41 6 21 29 -10
11 -13 18 -7 14 6 -3 9 6 8 26 -1 17 -7 33 -13 35 -7 2 -6 8 2 17 7 7 17 10
22 7 6 -3 4 2 -4 11 -7 9 -10 17 -7 17 4 0 -5 15 -19 34 -26 34 -26 34 -5 41
20 6 21 7 3 20 -17 13 -28 69 -11 59 4 -3 8 0 8 5 0 6 -6 11 -12 11 -9 0 -8 4
2 10 9 6 11 10 3 10 -7 0 -10 7 -7 15 4 8 11 12 18 8 6 -3 5 0 -2 8 -11 12
-14 12 -21 0 -7 -10 -9 -7 -8 11 1 16 7 24 15 21 8 -3 10 0 6 10 -3 10 -12 13
-22 10 -11 -4 -8 2 7 15 16 15 19 22 10 22 -8 0 -19 -3 -25 -8 -5 -4 -1 1 9
10 17 16 15 22 -5 19 -5 0 -8 4 -8 9 0 6 7 10 15 10 8 0 15 5 15 11 0 5 -5 7
-12 3 -8 -5 -9 -2 -5 9 3 10 2 17 -2 17 -5 0 -12 -6 -14 -12 -3 -7 -4 2 -2 19
2 18 0 33 -4 33 -4 0 -7 11 -7 24 0 14 4 22 8 20 4 -3 8 0 8 5 0 6 -4 11 -10
11 -5 0 -10 5 -10 11 0 5 4 8 8 5 5 -3 9 1 9 9 0 8 -4 12 -10 8 -5 -3 -7 5 -6
18 5 36 -9 53 -29 37 -15 -12 -16 -11 -4 4 8 9 19 16 25 14 7 -1 8 -1 4 2 -4
2 -2 11 5 20 11 13 10 14 -9 4 -24 -13 -45 -16 -25 -4 16 11 24 52 10 52 -5 0
-8 -7 -5 -15 4 -8 2 -17 -2 -19 -10 -6 -8 22 3 46 8 17 -15 52 -28 43 -3 -3
-2 0 4 7 6 8 4 15 -6 23 -13 9 -13 11 4 11 14 0 19 -6 17 -18 -2 -10 -1 -20 3
-22 4 -3 8 10 8 28 0 19 -5 33 -13 33 -7 0 -9 -5 -6 -11 3 -6 0 -5 -7 1 -16
15 -24 53 -11 53 6 0 8 -10 6 -21 -3 -12 -1 -19 2 -15 12 12 11 56 -1 54 -7
-2 -12 2 -13 7 0 6 3 9 8 8 4 -2 6 4 3 12 -4 8 -11 12 -18 9 -6 -3 -2 2 8 10
20 16 20 16 0 16 -15 0 -16 2 -4 9 8 6 19 7 25 3 5 -3 4 2 -4 11 -7 9 -19 17
-25 17 -6 0 -4 -5 4 -10 8 -5 10 -10 4 -10 -6 0 -18 8 -25 17 -10 11 -10 14
-1 9 16 -9 16 6 0 24 -7 8 -2 6 11 -5 l24 -20 -12 22 c-6 12 -19 27 -29 33
-16 11 -16 11 1 6 12 -4 17 -2 14 6 -2 7 -13 12 -23 10 -13 -2 -15 0 -6 6 10
7 8 15 -10 37 -12 16 -17 26 -10 21 7 -4 12 -2 12 4 0 6 5 8 12 4 7 -4 8 -3 4
4 -4 6 -14 8 -23 5 -12 -5 -14 -3 -7 8 13 20 13 72 0 59 -15 -15 -25 -12 -21
8 2 9 4 24 4 32 1 13 2 13 11 0 6 -9 10 -10 10 -3 0 6 -5 15 -10 18 -6 4 -7
11 -4 17 4 7 2 8 -5 4 -6 -4 -8 -12 -5 -18 4 -7 2 -8 -5 -4 -6 4 -8 12 -5 18
4 6 0 15 -7 20 -11 8 -11 9 2 5 17 -5 44 29 30 37 -5 3 -7 17 -6 31 2 15 -2
25 -9 25 -7 0 -13 6 -13 14 0 8 6 12 15 8 10 -3 13 -1 8 6 -4 7 -17 12 -29 12
-20 0 -20 1 -2 13 14 11 15 16 5 22 -9 5 -11 4 -6 -3 4 -7 2 -12 -3 -12 -6 0
-11 5 -11 10 0 6 -3 9 -7 8 -5 -2 -19 6 -33 16 -14 11 -18 16 -7 13 22 -8 22
0 -1 21 -10 10 -11 13 -3 7 12 -9 12 -7 2 13 -6 12 -9 22 -5 22 3 0 1 6 -5 13
-6 8 -7 17 -3 21 11 11 9 50 -3 59 -6 5 -4 7 5 4 8 -2 14 -10 12 -16 -1 -6 2
-11 8 -11 12 0 13 13 3 24 -13 12 -14 48 -1 40 7 -4 8 -3 4 5 -4 6 -11 9 -16
6 -5 -3 -12 0 -16 6 -4 7 -3 9 3 6 6 -4 11 4 11 18 0 14 -4 22 -8 20 -11 -7
-6 22 5 32 4 4 5 2 0 -6 -6 -10 -4 -12 5 -6 10 6 9 11 -5 22 -14 9 -15 13 -4
13 12 0 12 2 -1 10 -13 9 -13 10 0 10 13 0 13 1 0 10 -13 9 -13 10 0 10 9 0
11 3 5 8 -14 10 -17 32 -5 32 15 0 7 24 -10 32 -12 5 -11 7 4 7 20 1 20 1 0
17 -10 8 -13 13 -7 9 9 -4 11 -1 7 9 -3 9 -1 16 6 16 6 0 9 4 6 9 -4 5 0 12 6
14 8 3 6 6 -4 6 -10 1 -18 -4 -18 -11 0 -6 -3 -8 -6 -5 -4 4 -2 12 4 20 14 17
24 69 11 62 -5 -4 -7 -10 -5 -14 3 -4 -1 -8 -9 -8 -8 0 -15 4 -15 9 0 4 5 8
11 8 8 0 9 11 5 33 -3 19 -3 27 3 19 5 -9 8 -4 7 16 -1 17 -3 29 -6 27 -3 -2
-4 16 -4 38 1 23 -3 49 -10 57 -10 13 -9 13 7 1 20 -16 22 -9 6 22 l-12 22 24
-20 c13 -11 18 -13 11 -4 -6 9 -9 19 -5 22 3 4 1 7 -5 7 -7 0 -12 5 -12 11 0
6 7 8 16 5 15 -6 15 -4 3 11 -9 11 -10 14 -1 9 7 -4 12 -2 12 4 0 6 4 9 9 5 5
-3 13 0 17 6 4 8 3 9 -4 5 -7 -4 -12 -1 -12 9 0 9 7 15 15 13 8 -2 25 10 38
26 18 22 26 26 32 16 5 -8 4 -11 -3 -6 -6 3 -13 2 -16 -3 -5 -7 8 -8 32 -2 1
1 -3 11 -9 24 -12 22 -12 22 9 4 15 -14 22 -15 28 -6 4 8 3 10 -4 5 -8 -5 -10
-2 -6 9 6 14 8 14 19 -2 7 -10 11 -22 7 -28 -3 -5 2 -4 11 4 18 14 13 36 -6
25 -7 -4 -8 -3 -4 2 11 11 30 12 38 1 3 -4 13 -5 23 -1 14 5 14 9 4 22 -12 14
-11 14 9 2 18 -12 20 -17 10 -30 -10 -13 -10 -13 5 -2 9 8 23 10 30 6 10 -5
11 -4 1 7 -7 7 -13 18 -13 23 0 6 4 5 9 -2 12 -20 77 -24 91 -6 15 16 30 19
30 3 0 -5 -4 -8 -8 -5 -4 2 -8 -4 -8 -15 0 -19 1 -18 19 3 10 13 16 18 13 11
-4 -6 -1 -15 5 -19 8 -4 9 -3 5 4 -5 8 1 12 14 12 13 0 19 -4 14 -11 -5 -8 -1
-8 14 0 11 6 32 11 46 11 13 0 27 6 29 13 4 9 6 8 6 -2 1 -11 4 -11 19 0 15
13 16 12 3 -3 -7 -10 -17 -15 -22 -12 -5 3 -9 0 -9 -6 0 -7 6 -10 14 -7 7 3
19 0 25 -6 9 -9 11 -8 6 6 -9 21 1 22 21 2 9 -8 20 -15 27 -15 6 0 2 7 -9 16
-18 14 -18 15 4 4 12 -6 22 -7 22 -3 0 4 7 -1 15 -11 13 -17 15 -18 15 -3 0 9
5 17 11 17 5 0 7 -5 4 -10 -13 -22 7 -31 32 -15 14 9 27 14 31 11 3 -3 0 -6
-7 -6 -7 0 -9 -5 -5 -12 4 -6 3 -8 -4 -4 -6 3 -13 2 -16 -3 -7 -11 13 -9 33 3
10 7 12 3 6 -15 -7 -22 -7 -22 9 -6 15 15 36 15 36 1 0 -3 -5 -2 -12 2 -7 4
-8 3 -4 -5 6 -9 11 -9 24 1 12 10 14 10 8 1 -4 -8 -1 -13 9 -13 9 0 13 5 9 11
-3 6 5 4 18 -5 14 -9 28 -13 31 -9 4 3 7 1 7 -6 0 -7 5 -9 12 -5 6 4 9 3 6 -2
-3 -5 -2 -18 3 -29 6 -16 8 -17 8 -3 1 9 5 19 10 22 5 4 7 -3 4 -14 -5 -20 7
-25 55 -23 9 1 10 -3 2 -12 -8 -9 -4 -12 15 -10 14 2 23 0 21 -4 -8 -13 10
-32 32 -34 11 0 18 -5 16 -9 -3 -4 0 -8 5 -8 6 0 11 -5 11 -11 0 -5 -6 -7 -12
-3 -9 5 -9 3 1 -9 12 -15 31 -15 31 -1 0 3 -5 2 -12 -2 -7 -4 -8 -3 -4 5 10
15 29 3 22 -14 -3 -8 2 -19 10 -26 12 -10 13 -9 9 4 -4 8 -1 18 6 23 8 5 10 3
5 -5 -5 -7 0 -19 10 -27 11 -9 14 -13 8 -10 -6 3 -11 -1 -11 -8 0 -8 6 -12 13
-9 7 2 21 0 31 -6 10 -6 13 -11 7 -11 -6 0 -11 -7 -11 -15 0 -10 4 -12 12 -5
13 11 25 3 25 -14 0 -6 -5 -4 -10 4 -7 10 -10 11 -10 2 0 -7 8 -16 18 -19 29
-11 44 -30 29 -37 -6 -4 -2 -4 10 -2 15 3 20 0 16 -10 -3 -8 -10 -11 -16 -7
-6 3 -7 1 -3 -6 4 -6 12 -8 18 -5 7 5 9 1 5 -9 -3 -9 -1 -19 5 -23 7 -4 8 -3
4 4 -4 7 -2 12 3 12 6 0 11 -4 11 -8 0 -5 7 -17 16 -28 8 -10 12 -13 8 -5 -5
9 -3 12 5 7 6 -4 9 -11 6 -16 -3 -4 -1 -10 5 -12 9 -3 20 -35 22 -65 1 -7 6
-13 11 -13 5 0 6 7 3 16 -3 9 -2 12 5 9 5 -4 8 -20 5 -36 -4 -27 -2 -29 17
-23 20 6 21 5 7 -11 -9 -11 -10 -16 -2 -11 7 4 12 1 12 -8 0 -9 5 -16 11 -16
8 0 8 -4 0 -13 -8 -11 -5 -19 16 -38 14 -13 23 -18 19 -11 -4 6 -2 12 3 12 6
0 11 -9 11 -21 0 -13 -4 -18 -12 -13 -7 5 -8 3 -4 -5 5 -7 15 -10 23 -6 14 5
14 3 2 -12 -9 -11 -10 -14 -1 -9 7 4 12 1 12 -8 0 -9 -6 -16 -12 -16 -7 0 -5
-5 5 -11 10 -6 26 -8 35 -5 13 5 12 2 -3 -11 -19 -16 -19 -19 -5 -34 9 -8 22
-14 28 -13 7 1 8 0 2 -3 -5 -2 -10 -12 -10 -22 0 -9 -5 -22 -10 -27 -7 -7 -6
-11 4 -11 8 0 13 4 11 8 -3 3 3 13 13 20 15 12 15 12 5 -1 -11 -15 -13 -20
-13 -41 0 -5 -4 -8 -9 -5 -5 4 -7 -3 -4 -14 3 -12 0 -20 -8 -20 -7 0 -9 -3 -6
-6 4 -4 13 -1 22 6 13 11 15 9 11 -11 -3 -13 -5 -28 -5 -32 -1 -5 -5 -6 -10
-2 -5 3 -13 0 -17 -6 -4 -7 -3 -9 3 -6 6 4 10 -4 10 -18 0 -14 -3 -28 -8 -31
-5 -3 -6 1 -3 9 3 8 1 18 -5 22 -7 4 -8 0 -4 -11 5 -13 3 -15 -8 -9 -11 6 -12
5 -1 -6 6 -7 12 -26 12 -41 0 -15 5 -28 10 -28 6 0 10 -5 10 -11 0 -5 -4 -8
-9 -5 -5 3 -15 -2 -22 -12 -12 -15 -12 -16 2 -5 15 12 29 8 29 -9 0 -4 -5 -7
-11 -6 -6 2 -14 -4 -16 -12 -4 -12 -3 -13 5 -1 8 11 12 10 21 -6 8 -15 7 -25
-5 -39 -14 -18 -15 -18 -4 3 7 16 7 23 0 23 -5 0 -10 -6 -11 -12 0 -7 -2 -21
-4 -31 -2 -10 3 -21 11 -24 16 -6 19 -33 3 -33 -5 0 -7 6 -3 13 4 7 3 9 -2 4
-5 -5 -10 -13 -10 -18 -1 -5 -3 -10 -4 -11 -7 -8 -5 -68 3 -68 4 0 2 -7 -6
-15 -9 -8 -13 -24 -10 -35 3 -12 0 -20 -6 -20 -7 0 -9 -5 -5 -12 5 -7 11 -5
21 7 7 11 13 14 13 8 0 -6 -7 -16 -15 -23 -8 -7 -12 -16 -9 -21 3 -5 0 -9 -5
-9 -13 0 -10 -22 4 -33 6 -5 4 -7 -5 -4 -8 2 -14 10 -12 16 1 7 -2 10 -7 6 -6
-3 -7 -13 -4 -22 5 -12 3 -14 -7 -8 -9 5 -11 4 -6 -4 4 -6 11 -9 15 -7 4 3 8
-1 8 -9 0 -8 -4 -12 -9 -9 -12 8 -10 -10 3 -23 8 -8 6 -14 -9 -22 -10 -6 -23
-7 -27 -3 -5 4 -5 2 -2 -4 11 -18 16 -65 7 -59 -5 3 -11 1 -15 -5 -3 -5 -1
-10 4 -10 6 0 11 -5 11 -11 0 -5 -3 -8 -7 -6 -5 3 -9 -6 -10 -20 0 -14 -7 -29
-15 -34 -9 -6 -6 -9 12 -10 l25 -1 -25 -8 c-14 -4 -20 -8 -14 -9 17 -2 13 -31
-4 -31 -12 0 -12 -4 3 -20 17 -19 17 -19 -4 -15 -13 2 -25 -3 -31 -16 -6 -11
-7 -19 -1 -19 5 0 11 -7 15 -15 5 -13 2 -14 -15 -4 -13 7 -19 7 -15 1 3 -6 2
-13 -4 -17 -10 -6 6 -43 25 -57 6 -5 5 -8 -2 -8 -7 0 -13 -7 -13 -15 0 -8 -5
-15 -11 -15 -5 0 -7 5 -3 12 5 7 3 8 -6 3 -10 -6 -7 -13 11 -27 13 -11 19 -17
13 -14 -15 7 -24 -16 -24 -59 0 -18 -6 -36 -13 -38 -9 -4 -9 -6 1 -6 7 -1 10
-5 7 -11 -3 -5 -1 -10 6 -10 7 0 4 -6 -7 -14 -19 -15 -19 -15 1 -30 l20 -16
-20 7 c-11 3 -17 2 -12 -2 4 -5 -1 -17 -10 -28 -10 -11 -13 -18 -8 -14 6 3 17
2 25 -4 11 -6 11 -9 2 -9 -10 0 -10 -5 -1 -22 11 -21 11 -22 -5 -9 -15 12 -17
12 -14 0 2 -8 10 -20 18 -27 13 -12 13 -13 -1 -9 -9 3 -16 -1 -16 -9 0 -7 5
-11 10 -7 5 3 4 -5 -3 -17 -7 -13 -8 -20 -2 -16 6 3 13 2 16 -3 4 -5 2 -12 -3
-16 -6 -3 -8 -12 -4 -20 3 -8 0 -15 -6 -15 -11 0 -3 -31 12 -41 5 -3 1 -9 -8
-12 -9 -4 -14 -3 -11 2 3 5 -2 15 -12 22 -15 12 -16 12 -6 -1 6 -8 10 -36 9
-62 -1 -27 1 -48 6 -48 4 0 6 9 4 20 -2 11 0 20 6 20 5 0 7 -10 5 -22 -3 -13
-5 -38 -5 -56 -1 -18 -5 -31 -10 -28 -13 9 -6 -61 9 -79 8 -9 8 -15 2 -15 -6
0 -16 8 -21 17 -6 10 -11 13 -11 6 0 -6 5 -15 10 -18 6 -4 7 -11 4 -17 -5 -7
-2 -9 8 -6 12 5 14 -1 11 -29 -2 -22 0 -32 7 -28 6 3 7 0 4 -9 -3 -9 -10 -13
-15 -10 -14 8 -10 -3 7 -20 12 -12 12 -16 2 -16 -10 0 -9 -3 2 -10 13 -8 13
-11 1 -19 -11 -7 -9 -10 9 -16 15 -5 20 -13 17 -27 -5 -16 -3 -17 11 -6 13 11
15 11 10 -3 -5 -13 -2 -16 14 -11 13 3 19 1 15 -5 -3 -5 0 -10 8 -10 8 0 13 3
11 6 -2 3 9 6 25 7 21 1 29 -4 29 -16 0 -27 12 -31 34 -13 12 10 15 11 9 3
-17 -18 -17 -33 -1 -24 19 12 48 12 41 1 -4 -6 0 -8 8 -5 8 3 23 1 34 -4 18
-8 18 -8 -2 -4 -13 2 -25 1 -27 -3 -3 -4 13 -8 35 -10 31 -1 39 1 34 11 -4 7
-1 6 7 -2 7 -9 21 -14 32 -12 13 3 16 0 11 -9 -6 -8 -4 -10 6 -3 20 12 40 14
33 3 -3 -5 -1 -9 5 -9 5 0 12 6 14 13 3 6 6 2 6 -10 1 -13 6 -23 12 -23 6 0 8
7 5 16 -3 8 -2 13 3 9 5 -3 21 -1 36 5 17 7 24 7 20 0 -3 -6 -14 -10 -23 -10
-14 0 -14 -2 -3 -9 11 -7 10 -10 -5 -13 -10 -3 11 -4 49 -2 38 1 67 -2 67 -7
0 -6 -6 -7 -12 -3 -9 5 -9 2 1 -9 15 -18 41 -23 41 -7 0 5 -6 8 -12 6 -7 -1
-10 -1 -5 1 4 3 5 9 2 14 -4 5 1 6 9 3 9 -3 16 -12 16 -19 0 -17 27 -27 34
-12 3 9 5 8 5 -1 1 -10 6 -10 22 -2 19 11 20 10 9 -10 -11 -21 -11 -21 14 -5
25 16 25 16 21 -7 -4 -22 -4 -22 10 -4 13 18 20 15 16 -6 0 -5 2 -7 7 -7 21 4
32 -2 26 -13 -6 -10 -5 -10 8 -1 8 7 19 9 23 5 5 -4 5 -1 1 6 -4 7 -12 9 -18
6 -7 -5 -8 -2 -3 6 6 10 12 8 26 -8 17 -22 36 -31 24 -13 -3 5 -1 12 3 15 5 3
9 -7 8 -22 -1 -22 3 -26 19 -24 11 2 24 9 28 15 6 8 7 5 3 -5 -3 -10 -1 -18 5
-18 6 0 7 -5 3 -12 -4 -7 -3 -8 5 -4 6 4 9 12 6 17 -4 5 -2 9 2 9 5 0 14 -9
20 -19 7 -11 20 -18 30 -16 25 4 55 -14 47 -27 -4 -7 -3 -8 5 -4 6 4 9 11 7
15 -3 3 4 7 14 7 15 0 17 -3 7 -16 -6 -8 -7 -12 -3 -8 5 4 15 3 23 -4 11 -8
12 -7 7 6 -3 9 -2 16 4 16 6 0 9 -12 7 -26 -2 -18 1 -22 8 -15 14 14 30 14 22
1 -8 -13 8 -13 22 1 8 8 13 7 18 -2 6 -8 4 -10 -5 -4 -9 6 -11 4 -5 -5 6 -10
11 -9 22 5 7 11 13 13 13 7 0 -7 9 -12 21 -12 11 0 18 -4 14 -9 -3 -5 0 -13 6
-17 7 -4 9 -3 6 3 -4 6 0 18 7 29 13 17 13 16 11 -8 -3 -23 0 -26 23 -22 15 3
33 11 42 17 13 10 13 10 2 -4 -10 -14 -10 -18 2 -22 9 -4 18 -1 22 5 4 7 3 8
-4 4 -17 -10 -15 -1 4 14 8 8 14 9 13 4 -4 -25 2 -36 18 -30 9 4 21 1 26 -6 6
-9 7 -8 3 5 -3 9 -1 17 4 17 6 0 10 -4 10 -8 0 -4 9 -8 19 -9 14 -1 18 3 15
15 -5 14 -4 14 6 -1 9 -14 15 -16 26 -6 10 8 14 8 14 0 0 -6 -4 -11 -10 -11
-5 0 -10 -5 -10 -11 0 -5 4 -7 10 -4 5 3 10 1 10 -5 0 -6 5 -8 10 -5 6 4 7 12
4 18 -4 7 -3 8 2 4 5 -5 9 -13 9 -18 0 -5 5 -9 10 -8 6 0 9 8 7 17 -2 10 1 13
5 7 12 -15 56 -38 48 -26 -8 14 8 14 22 0 8 -8 13 -8 17 0 4 6 12 11 17 11 6
0 8 -4 5 -8 -6 -10 30 -9 40 1 12 12 26 8 18 -5 -5 -9 -2 -9 9 1 9 7 17 9 17
4 0 -11 29 -11 48 1 6 4 12 2 12 -3 0 -6 4 -11 9 -11 6 0 8 10 6 21 -3 12 -1
18 3 15 4 -4 7 -12 7 -18 0 -6 13 -12 29 -14 26 -3 27 -2 10 11 -18 13 -18 14
4 8 12 -3 22 -9 22 -14 0 -5 5 -9 11 -9 5 0 7 5 4 10 -3 6 -2 10 4 10 5 0 11
-6 14 -12 3 -10 8 -10 18 1 9 8 9 11 2 7 -9 -5 -11 -2 -6 10 5 15 7 15 15 0 5
-9 6 -22 3 -29 -4 -6 1 -3 9 7 10 13 16 15 16 7 0 -11 3 -11 17 0 13 11 17 11
21 1 3 -10 7 -10 20 0 12 10 14 10 8 0 -9 -15 -1 -15 26 -1 12 6 18 7 14 1 -3
-6 5 -9 19 -8 18 1 24 5 20 16 -4 11 -1 10 8 -2 11 -13 16 -15 25 -6 9 9 12 9
12 -1 0 -9 4 -10 13 -3 7 5 21 6 32 1 28 -11 37 -11 30 1 -3 5 -1 10 4 10 6 0
11 -5 11 -11 0 -8 4 -8 14 0 11 9 16 9 22 0 4 -8 3 -9 -4 -5 -8 5 -10 2 -6 -8
5 -12 9 -13 19 -3 10 9 10 16 1 27 -10 13 -9 13 7 1 20 -16 79 -23 71 -9 -3 4
0 8 5 8 6 0 11 -4 11 -9 0 -5 7 -12 16 -15 15 -6 15 -4 3 11 -8 9 -9 14 -2 10
6 -4 25 -9 42 -11 26 -3 29 -1 20 11 -10 11 -9 12 5 7 9 -3 16 -10 16 -14 0
-10 88 -6 97 5 5 4 2 5 -4 1 -9 -5 -11 -2 -7 8 5 13 9 12 24 -7 17 -20 18 -20
17 -3 -1 11 5 20 16 21 9 2 15 -1 11 -6 -3 -5 -10 -7 -15 -4 -5 3 -6 -1 -2
-10 5 -13 7 -14 14 -3 7 11 12 11 30 0 15 -10 19 -10 13 -1 -5 9 -1 11 13 7
12 -3 20 0 20 8 0 7 -5 10 -10 7 -6 -4 -7 -1 -2 7 6 10 11 9 22 -6 14 -19 19
-19 38 -5 6 5 20 7 32 6 14 -1 19 3 16 12 -3 7 -10 10 -17 6 -17 -11 -37 -12
-30 -2 3 5 9 7 14 4 5 -3 12 0 15 5 5 8 12 7 23 -3 10 -8 26 -12 37 -9 11 3
41 5 68 6 35 1 47 5 47 16 0 12 2 13 9 1 6 -9 10 -10 12 -2 2 6 25 12 51 13
26 1 45 5 42 9 -2 4 4 10 13 13 15 6 15 8 3 16 -13 9 -13 10 0 11 8 1 21 0 29
-1 11 -1 11 4 -3 25 l-17 26 23 -12 c19 -10 21 -10 12 2 -6 8 -11 23 -11 34 0
11 5 26 11 34 9 12 8 13 -3 7 -9 -6 -12 -4 -9 5 3 8 10 14 16 14 5 0 14 3 18
7 3 4 -2 6 -13 4 -16 -4 -21 1 -21 22 0 15 3 32 6 37 11 18 11 35 -1 28 -7 -4
-8 0 -3 13 4 10 9 29 11 42 2 18 0 20 -12 11 -7 -7 -16 -9 -20 -5 -3 3 -1 6 5
6 7 0 11 11 10 25 -1 14 -6 25 -10 25 -4 0 -8 5 -8 11 0 5 6 7 13 3 6 -4 3 3
-8 16 l-20 23 23 -12 c26 -14 28 -9 6 14 -14 13 -14 18 -2 32 9 12 9 15 1 9
-16 -9 -17 6 -2 21 8 8 7 13 -2 18 -8 6 -10 4 -4 -5 5 -8 4 -11 -3 -7 -5 4 -8
16 -5 27 3 11 10 17 16 13 6 -3 7 -1 3 5 -4 7 -15 12 -24 12 -13 0 -14 2 -3 9
11 7 11 9 0 14 -11 4 -11 6 -1 6 10 1 9 5 -3 17 -9 9 -13 25 -10 38 2 11 2 16
-1 9 -4 -10 -8 -10 -19 0 -9 9 -10 14 -1 20 6 5 1 7 -13 3 -18 -4 -21 -2 -12
7 15 15 14 30 -3 24 -10 -4 -12 0 -8 15 4 15 7 17 13 6 5 -7 9 -8 9 -2 0 21
-14 24 -34 7 -12 -10 -15 -11 -8 -3 14 16 16 34 3 25 -5 -3 -9 8 -9 25 1 17
-3 34 -7 38 -4 4 -5 -3 -2 -16 3 -12 2 -22 -1 -22 -10 1 -47 83 -43 95 1 5 -1
7 -5 3 -4 -4 -14 -2 -23 4 -10 8 -8 3 4 -12 l20 -25 -22 18 c-13 12 -19 25
-16 35 5 12 2 14 -11 9 -11 -5 -15 -3 -10 5 5 7 -1 9 -19 6 -15 -3 -24 -2 -22
3 3 4 0 11 -7 16 -13 8 -18 9 -38 12 -5 0 -10 10 -10 22 0 11 -4 17 -10 14 -5
-3 -10 2 -11 12 0 16 -1 16 -9 -2 -7 -16 -9 -17 -9 -3 -1 9 -6 20 -13 24 -7 4
-8 3 -4 -4 4 -7 4 -12 1 -12 -11 0 -34 27 -29 33 3 3 -13 4 -34 4 -35 -2 -39
0 -31 15 12 22 11 28 -2 28 -5 0 -7 -5 -4 -10 3 -6 2 -10 -3 -10 -5 0 -14 10
-21 23 -6 12 -9 14 -7 4 7 -22 4 -22 -25 5 -17 14 -19 19 -6 15 9 -4 17 -2 17
4 0 7 -11 9 -25 6 -14 -2 -23 -2 -20 1 2 3 -4 11 -15 19 -20 14 -27 38 -12 46
4 2 2 3 -4 1 -6 -1 -18 3 -25 9 -10 10 -10 8 0 -6 12 -15 12 -17 -3 -11 -9 3
-16 13 -16 21 0 15 -23 43 -35 43 -4 0 -14 7 -22 16 -13 13 -17 13 -24 2 -8
-12 -13 -4 -10 15 0 4 -4 7 -10 7 -6 0 -8 7 -5 16 3 8 2 12 -4 9 -6 -3 -10 -1
-10 6 0 6 -8 9 -19 6 -14 -3 -18 -1 -14 9 3 8 -1 14 -11 14 -9 0 -16 3 -17 8
-4 45 -10 53 -38 55 -11 1 -21 7 -21 15 0 7 -5 10 -12 6 -8 -5 -9 -2 -5 9 3 9
3 16 -1 16 -19 -3 -23 2 -12 16 10 12 9 15 -5 15 -12 0 -16 6 -12 20 5 20 -8
29 -15 9 -2 -5 -14 1 -27 15 -27 29 -22 36 5 9 13 -13 16 -14 12 -3 -2 8 -14
19 -26 25 -19 8 -27 23 -24 46 1 4 -8 5 -18 2 -14 -4 -20 0 -20 11 0 9 -4 16
-8 16 -5 0 -17 7 -28 16 -10 8 -12 12 -4 8 8 -4 2 7 -14 24 -18 20 -26 37 -22
48 5 12 2 15 -11 10 -10 -4 -14 -4 -10 0 4 4 2 13 -5 21 -9 11 -7 12 8 7 20
-8 19 -6 -8 14 -12 10 -18 10 -24 1 -5 -8 -3 -9 6 -4 9 6 11 4 6 -4 -11 -17
-19 -7 -23 31 -4 38 -11 47 -22 29 -6 -10 -10 -9 -14 3 -4 9 -17 21 -29 27
l-23 10 23 -5 c12 -2 22 0 22 5 0 5 -5 9 -11 9 -6 0 -9 9 -6 20 3 11 1 17 -4
14 -5 -3 -12 1 -15 10 -3 8 -13 17 -22 21 -12 4 -10 -1 6 -18 16 -17 18 -24 8
-24 -8 0 -14 5 -13 11 1 6 -3 10 -8 9 -10 -1 -14 11 -17 54 -1 7 -5 10 -10 7
-4 -3 -8 0 -8 6 0 6 -5 8 -12 4 -8 -5 -9 -2 -5 9 6 16 -18 38 -40 37 -4 -1 3
-7 16 -14 15 -8 20 -16 12 -20 -6 -4 -11 -2 -11 3 0 6 -6 11 -14 11 -16 0 -29
27 -19 42 3 6 1 8 -4 5 -6 -4 -17 1 -24 10 -12 15 -12 16 6 9 15 -5 17 -4 9 4
-10 10 -20 14 -53 19 -3 1 4 8 15 17 10 8 14 13 7 10 -6 -4 -14 -2 -18 4 -3 5
2 10 12 10 15 0 16 2 3 10 -13 9 -13 11 0 20 12 8 12 10 1 10 -11 0 -11 3 -1
15 9 11 7 19 -14 40 -14 14 -22 25 -18 25 4 0 -8 10 -26 21 -23 15 -30 25 -23
33 7 9 7 16 -1 24 -7 7 -13 17 -14 24 -2 7 -5 23 -8 36 -4 20 -3 21 17 11 19
-8 20 -8 7 3 -8 7 -15 19 -16 26 -3 33 -4 35 -18 23 -11 -9 -16 -9 -22 1 -4 7
-4 10 0 6 5 -4 14 -2 21 5 9 9 7 15 -9 29 l-21 17 23 -6 c13 -3 22 -1 22 6 0
6 -3 10 -7 10 -5 -1 -17 -1 -28 1 -19 1 -19 2 -2 9 10 4 18 11 17 15 -1 5 4
13 12 18 9 6 6 7 -9 3 -25 -7 -25 -6 -26 53 0 20 -6 40 -11 44 -8 5 -8 8 0 8
6 0 10 15 9 35 -2 19 1 32 6 30 4 -3 6 -12 2 -20 -3 -8 -1 -15 5 -15 16 0 7
31 -13 46 -16 12 -16 14 -3 14 9 0 20 5 24 12 4 6 3 8 -3 5 -6 -4 -14 0 -17 9
-8 22 -8 22 12 27 15 4 15 5 1 6 -20 1 -33 28 -13 28 7 0 10 -5 7 -10 -3 -6
-1 -7 5 -4 12 8 10 32 -3 44 -4 4 -5 2 0 -6 5 -9 4 -12 -3 -8 -5 4 -9 15 -7
25 2 9 4 20 4 25 1 4 6 7 12 7 8 0 7 -6 -2 -17 -13 -16 -12 -17 3 -5 21 16 12
46 -11 37 -13 -5 -14 -4 -3 6 17 18 15 29 -5 22 -15 -5 -15 -3 2 11 14 12 16
19 8 22 -10 4 -10 8 0 19 8 8 16 10 24 3 16 -13 11 19 -7 35 -10 9 -11 9 -6 0
4 -7 2 -13 -4 -13 -7 0 -9 7 -6 16 4 9 1 24 -6 33 -10 13 -10 14 2 4 20 -18
35 -16 20 3 -11 12 -11 15 -1 12 8 -2 15 5 16 15 2 9 -1 17 -6 17 -4 0 -6 7
-3 15 4 8 -1 17 -10 21 -14 5 -14 7 0 22 15 14 15 17 -2 29 -10 7 -12 13 -5
13 6 0 11 6 10 13 -3 24 1 37 12 37 5 0 7 -6 3 -12 -11 -18 -12 -48 -2 -42 5
4 7 12 4 20 -3 8 2 18 10 21 14 5 12 8 -7 19 -13 7 -28 10 -33 7 -5 -4 -6 -1
-2 6 4 6 12 9 17 6 5 -4 9 -1 9 5 0 6 4 9 9 5 5 -3 12 -1 16 4 3 6 -2 8 -12 7
-16 -4 -18 5 -19 80 0 67 3 84 14 79 7 -3 10 0 7 6 -4 5 -2 16 5 24 8 10 8 15
-1 20 -8 6 -8 9 1 15 8 5 7 9 -5 13 -9 4 -13 3 -10 -3 3 -6 1 -10 -4 -10 -13
0 -14 10 -1 30 6 9 5 20 -3 30 -6 8 -7 12 -3 8 10 -8 36 9 36 23 0 5 -5 9 -11
9 -5 0 -7 -4 -4 -10 10 -16 -1 -12 -15 6 -8 8 -9 14 -4 13 18 -3 37 1 31 8 -4
3 -1 13 6 21 8 11 8 14 0 9 -6 -4 -13 -4 -16 0 -2 5 -2 3 -1 -4 2 -7 -2 -15
-9 -19 -7 -4 -9 -4 -5 1 4 4 3 14 -2 20 -8 9 -6 14 6 19 9 3 19 4 23 1 13 -7
4 46 -10 59 -9 8 -10 8 -4 -3 5 -10 4 -12 -4 -7 -6 4 -9 12 -5 17 3 5 10 7 15
4 10 -7 10 -7 13 85 1 36 -2 71 -7 78 -8 9 -5 11 9 5 16 -6 17 -5 6 9 -7 9
-12 22 -11 30 4 31 -1 49 -13 42 -7 -4 -8 -3 -4 5 4 6 11 9 16 6 4 -3 11 2 14
11 3 8 2 12 -4 9 -12 -8 -13 5 -1 24 6 9 6 22 1 31 -11 21 -1 62 13 53 6 -3 7
-1 3 5 -4 7 -17 12 -29 13 l-22 0 23 9 c12 5 22 16 22 23 0 19 -24 39 -35 29
-5 -4 -5 -1 -1 6 5 9 12 9 28 1 15 -8 19 -8 14 0 -4 6 -1 11 6 11 8 0 6 5 -4
11 -10 5 -18 15 -18 20 0 6 4 7 10 4 6 -3 7 1 4 9 -3 9 -9 14 -13 11 -4 -2 -8
3 -8 11 0 9 6 13 16 9 8 -3 12 -3 8 1 -4 4 -1 14 6 22 6 9 7 13 2 10 -6 -4
-17 -3 -25 3 -12 7 -11 9 5 10 11 1 24 1 28 0 5 -1 6 3 2 9 -3 6 -11 8 -16 5
-5 -4 -9 3 -9 14 0 12 6 21 13 21 8 0 7 4 -3 10 -13 8 -8 14 11 12 3 -1 6 6 6
14 0 10 -4 11 -11 4 -5 -5 -14 -10 -19 -10 -5 0 -1 7 7 16 17 16 22 39 7 30
-5 -3 -11 1 -14 9 -4 10 -1 12 11 8 14 -5 14 -3 -3 18 -15 18 -16 20 -2 10 20
-15 23 -2 5 18 -10 11 -10 13 0 7 7 -5 12 -1 12 9 0 10 -5 13 -12 9 -6 -4 -4
3 5 16 18 26 6 66 -16 54 -7 -4 -3 2 7 14 11 12 16 22 13 22 -3 0 -2 13 3 30
7 23 5 34 -8 47 -16 16 -16 16 0 11 17 -7 34 17 19 27 -12 7 -20 55 -10 61 5
3 9 10 9 16 0 7 -4 7 -13 -1 -10 -8 -14 -7 -14 3 0 9 10 13 31 10 17 -2 25 -1
18 2 -10 5 -10 9 0 22 10 12 10 14 1 8 -16 -9 -17 6 -3 20 7 7 6 11 -4 11 -9
0 -13 -9 -11 -24 1 -12 -1 -23 -6 -23 -4 0 -7 20 -5 45 1 31 10 53 27 71 21
23 21 25 4 16 -18 -9 -21 -7 -22 11 -2 17 0 19 7 7 7 -11 10 -11 10 -2 0 7 5
10 12 6 7 -4 8 -3 4 4 -4 7 -15 12 -24 13 -12 0 -11 3 6 9 26 11 30 22 5 13
-15 -5 -16 -3 -5 8 14 16 16 33 2 24 -5 -3 -10 -2 -10 3 0 6 7 13 16 16 9 4
14 9 11 13 -4 3 -2 12 4 19 12 14 3 38 -11 29 -5 -3 -11 -1 -15 5 -3 5 0 10 8
10 10 0 14 7 10 23 -4 18 -3 19 6 7 7 -9 11 -10 11 -3 0 20 -18 24 -29 6 -6
-10 -11 -13 -11 -6 0 6 5 15 10 18 6 4 7 11 4 17 -4 7 -2 8 4 4 7 -4 12 -2 12
4 0 6 5 8 12 4 7 -4 8 -3 4 5 -4 6 -13 8 -19 5 -8 -5 -8 -3 1 7 21 23 13 33
-10 13 -21 -18 -22 -18 -8 0 8 10 15 25 16 33 1 8 10 20 20 27 12 10 14 15 5
20 -9 6 -9 11 1 24 8 9 8 13 2 9 -7 -4 -14 0 -18 8 -3 8 0 15 6 15 6 0 3 10
-8 22 -10 12 -13 18 -5 13 11 -6 13 -3 8 14 -5 19 -3 20 11 9 13 -10 14 -10 8
0 -4 7 -2 20 6 29 8 10 8 14 1 10 -6 -4 -15 -2 -19 4 -8 13 16 30 30 22 5 -3
6 -1 2 5 -3 6 -16 9 -29 7 -20 -4 -21 -3 -4 9 9 7 17 19 17 27 0 11 2 11 10
-1 6 -9 10 -10 10 -3 0 6 -5 15 -10 18 -6 4 -8 11 -4 16 3 5 1 16 -6 24 -8 10
-8 15 1 21 8 4 9 3 5 -4 -4 -7 -2 -12 3 -12 6 0 11 9 11 20 0 11 5 20 12 20 6
0 8 3 5 6 -4 4 -13 1 -21 -5 -11 -9 -16 -9 -22 0 -5 8 -3 9 5 5 8 -5 11 -2 9
9 -2 10 4 20 12 22 13 4 13 3 0 -6 -9 -7 -10 -11 -3 -11 18 0 26 19 10 26 -7
2 -14 11 -14 18 0 9 7 12 16 8 14 -5 14 -4 1 13 -8 10 -10 16 -3 12 6 -4 14
-3 18 3 5 9 -15 15 -37 11 -13 -2 -9 6 9 20 11 9 14 10 9 2 -5 -9 -2 -11 8 -7
9 3 16 10 16 16 0 5 -4 7 -9 3 -5 -3 -12 -1 -16 5 -3 5 1 10 10 10 13 0 14 4
5 20 -6 11 -7 20 -3 20 4 0 2 4 -5 9 -11 7 -10 9 3 14 9 4 13 3 10 -3 -3 -6
-1 -10 4 -10 6 0 9 10 7 23 -2 12 1 27 6 34 6 7 5 14 -3 19 -7 4 -9 3 -6 -3 3
-5 0 -10 -8 -10 -11 0 -10 5 2 24 8 13 11 23 5 23 -5 0 -13 7 -16 16 -5 14 -4
15 9 4 12 -10 15 -10 15 4 0 9 -4 16 -10 16 -5 0 -10 5 -10 11 0 5 4 8 8 5 4
-2 8 13 8 34 0 21 -3 37 -6 35 -4 -2 -7 2 -7 10 0 8 4 12 9 9 4 -3 8 6 8 20 0
24 4 26 41 26 29 0 38 -3 33 -12 -6 -10 -4 -10 8 0 13 10 17 10 22 -3 3 -9 11
-13 17 -9 8 4 9 3 5 -4 -4 -7 -2 -12 3 -12 6 0 11 -9 11 -20 0 -11 5 -20 11
-20 5 0 7 6 3 13 -5 8 -2 8 9 -2 17 -13 24 -26 10 -18 -5 3 -14 -2 -22 -10
-12 -13 -11 -14 8 -8 22 7 30 -9 9 -19 -7 -4 -2 -4 12 -2 21 4 22 3 10 -7 -15
-12 -24 -61 -10 -52 4 3 13 -2 20 -10 7 -8 17 -12 24 -8 7 4 7 1 -1 -7 -10
-11 -15 -11 -30 1 -17 13 -17 12 -2 -6 9 -11 14 -25 12 -32 -2 -6 0 -14 5 -17
6 -3 9 2 8 11 0 9 6 18 14 20 13 4 13 3 1 -5 -13 -9 -13 -13 0 -28 8 -9 14
-20 14 -23 0 -3 4 -5 9 -3 5 2 4 -4 -4 -12 -10 -13 -10 -16 0 -16 8 0 10 -3 7
-7 -4 -3 -1 -13 6 -21 8 -11 8 -14 0 -9 -6 4 -15 2 -19 -4 -4 -8 -3 -9 4 -5
11 7 16 -7 13 -44 0 -10 1 -11 5 -2 7 15 34 16 34 1 0 -5 -4 -7 -10 -4 -5 3
-10 -1 -10 -10 0 -9 5 -13 10 -10 6 3 10 0 10 -8 0 -17 26 -30 43 -21 7 3 4
-1 -6 -9 -16 -13 -16 -15 -1 -21 9 -3 14 -13 11 -20 -4 -11 1 -13 18 -10 13 2
27 -1 31 -7 5 -8 2 -10 -7 -5 -8 5 -8 2 2 -6 9 -7 14 -19 12 -25 -3 -7 0 -13
7 -13 6 0 9 4 6 8 -2 4 0 14 6 22 8 12 9 12 4 -2 -3 -10 -1 -18 4 -18 6 0 9
-3 9 -7 -4 -25 3 -34 21 -28 13 4 20 2 18 -6 -2 -6 7 -12 20 -14 12 -1 22 2
22 7 0 13 17 9 34 -7 16 -17 30 -20 21 -5 -4 6 5 9 19 8 15 -1 26 -6 26 -11 0
-4 5 -5 10 -2 8 5 7 12 -2 23 -7 10 0 6 14 -7 24 -21 56 -22 43 0 -4 5 1 9 10
9 10 0 13 5 9 13 -4 6 3 3 16 -8 20 -17 22 -17 17 -3 -4 12 -2 15 8 11 8 -3
13 -8 10 -12 -2 -4 2 -8 10 -8 8 0 13 3 10 5 -3 3 4 12 16 20 12 9 18 20 14
30 -5 12 -1 12 17 -4 19 -16 20 -16 9 -1 -12 15 -12 20 -1 30 10 10 11 9 5 -3
-7 -12 -6 -13 7 -3 8 7 19 10 24 6 5 -4 4 -2 -3 6 -9 11 -7 20 10 42 11 16 25
29 30 29 6 0 2 -9 -7 -19 -14 -15 -15 -21 -4 -27 7 -4 10 -4 6 1 -4 4 -2 15 4
23 29 35 13 76 -20 50 -15 -11 -15 -11 -5 3 7 9 10 19 6 22 -10 10 6 8 28 -3
11 -6 19 -7 19 -1 0 5 -7 11 -15 15 -21 8 -19 27 3 19 14 -5 14 -3 -3 11 -11
10 -15 15 -9 12 7 -3 15 1 18 10 9 23 7 31 -3 15 -7 -10 -12 -11 -27 -1 -15 9
-15 10 -2 6 9 -2 19 2 22 10 3 9 11 12 17 8 8 -4 9 -3 5 4 -4 6 -12 9 -19 6
-8 -3 -13 4 -13 20 0 13 5 22 11 20 6 -3 11 4 11 15 0 16 -3 18 -21 9 -19 -11
-19 -10 -2 9 19 21 23 38 7 28 -12 -8 -13 -3 -1 28 7 18 5 32 -9 55 -11 18
-15 34 -10 37 6 4 10 11 10 16 0 6 -5 7 -12 3 -7 -5 -8 -3 -4 5 5 7 18 16 30
21 17 7 17 9 4 9 -10 1 -18 6 -18 12 0 5 4 8 9 4 6 -3 8 3 6 15 -2 11 1 22 6
25 5 4 7 11 3 16 -3 5 -9 7 -13 5 -4 -3 -13 4 -19 15 -12 19 -11 19 8 9 26
-14 26 -2 -2 21 -16 15 -18 19 -5 19 8 0 17 -5 19 -11 2 -6 4 11 5 37 1 33 7
53 20 63 16 12 17 13 1 8 -10 -4 -18 -2 -18 4 0 6 -6 7 -12 3 -8 -4 -10 -3 -5
2 5 5 14 9 20 9 5 0 12 6 15 14 3 8 0 11 -5 8 -5 -3 -10 0 -10 8 0 8 4 12 9 9
13 -8 9 11 -4 25 -11 10 -9 11 5 5 15 -5 16 -3 7 20 -6 16 -6 25 -1 21 5 -3
13 -1 16 5 4 6 3 10 -2 9 -19 -3 -30 2 -30 16 0 10 4 12 12 5 7 -6 11 -3 11 9
0 11 -6 17 -13 14 -7 -3 -13 0 -13 6 0 6 6 11 13 11 14 0 16 27 3 48 -4 6 -3
12 3 12 6 0 8 7 5 15 -6 14 -8 14 -18 0 -10 -15 -12 -14 -12 4 0 11 4 18 7 15
4 -2 10 0 14 6 3 5 1 10 -5 10 -8 0 -7 6 1 21 6 12 7 19 1 15 -16 -9 -24 25
-10 42 8 10 9 13 2 9 -7 -4 -15 0 -18 9 -5 12 -2 15 9 10 9 -3 14 -2 10 3 -3
5 -2 11 2 14 5 2 1 2 -7 0 -12 -3 -12 -1 -3 8 8 8 9 19 3 35 -6 15 -5 26 2 30
6 4 8 3 4 -4 -3 -6 -2 -13 3 -16 13 -8 8 19 -7 36 -12 15 -7 28 12 28 6 0 4
-5 -4 -10 -9 -6 -10 -10 -3 -10 20 0 24 18 6 29 -10 6 -12 11 -5 11 6 0 12 5
12 11 0 5 -4 7 -10 4 -5 -3 -10 -2 -10 4 0 5 6 11 12 13 9 3 8 9 -5 22 -23 24
-21 29 6 15 17 -9 20 -9 10 1 -6 7 -9 19 -6 26 3 8 0 14 -7 14 -6 0 -8 -4 -5
-10 3 -6 -1 -7 -10 -3 -12 4 -13 8 -5 13 7 4 8 10 4 12 -5 3 -4 3 3 2 23 -6
23 15 1 30 -21 15 -21 16 -3 16 17 1 18 2 5 13 -8 7 -16 19 -18 27 -3 11 2 10
17 -4 20 -19 20 -18 -1 25 -13 24 -29 48 -36 52 -9 6 -9 13 -2 27 12 23 13 33
1 26 -5 -4 -7 4 -4 16 4 19 3 20 -6 8 -9 -12 -11 -9 -7 12 3 15 8 33 12 40 5
9 2 9 -9 -1 -15 -12 -17 -12 -11 4 5 11 4 16 -3 12 -5 -3 -10 0 -10 8 0 8 5
11 11 8 6 -4 5 0 -2 9 -10 13 -10 17 0 22 7 3 2 4 -12 2 -24 -5 -24 -4 -6 9
18 13 15 19 -6 16 -4 0 -5 6 -2 13 3 9 12 12 22 8 14 -5 15 -4 2 10 -13 13
-16 13 -25 1 -8 -10 -10 -5 -9 21 1 19 -5 43 -13 53 -13 17 -13 17 -4 -3 7
-15 7 -21 -2 -21 -7 0 -14 9 -15 19 -1 10 -3 27 -4 38 -1 11 -6 20 -10 20 -4
0 -8 5 -8 11 0 5 5 7 10 4 6 -3 10 -1 10 4 0 6 -7 11 -16 11 -10 0 -14 5 -10
16 3 8 2 12 -4 9 -6 -3 -10 -1 -10 6 0 7 -3 9 -7 6 -4 -4 -13 7 -20 24 -7 17
-17 28 -23 24 -5 -3 -10 1 -10 10 0 10 4 13 13 8 6 -4 1 7 -13 24 -14 17 -28
28 -32 26 -5 -2 -8 3 -8 13 0 13 -3 14 -14 5 -12 -10 -13 -9 -9 7 2 11 -1 23
-8 27 -7 5 -10 4 -5 -3 3 -6 1 -14 -6 -18 -7 -4 -10 -3 -5 1 4 5 -1 17 -10 28
-10 11 -13 17 -6 14 6 -4 15 -2 19 4 4 8 3 9 -4 5 -7 -4 -12 -1 -12 6 -1 8 -6
6 -15 -6 -17 -22 -20 -14 -6 13 7 13 6 18 -4 18 -8 0 -12 -4 -9 -9 3 -4 -2 -5
-10 -2 -8 3 -18 15 -22 26 -4 12 -11 17 -21 13 -13 -4 -14 -3 -3 10 12 15 4
20 -22 16 -5 0 -8 4 -8 10 0 5 -6 7 -12 3 -9 -5 -9 -2 1 9 12 15 11 17 -8 17
-14 0 -20 4 -15 11 4 7 -2 6 -17 -1 l-24 -13 20 24 c11 13 13 18 5 11 -22 -19
-32 -14 -24 11 6 21 6 21 -14 -3 -12 -14 -21 -19 -22 -12 0 6 5 12 11 12 5 0
7 5 4 10 -4 6 -12 7 -18 4 -7 -4 -9 -4 -5 1 4 4 2 15 -5 23 -8 10 -8 13 -1 9
16 -9 25 18 12 31 -13 13 6 42 26 42 6 0 3 -5 -6 -11 -10 -5 -18 -15 -18 -20
0 -6 5 -7 12 -3 6 4 8 3 4 -4 -3 -6 -2 -13 3 -16 4 -3 8 4 7 17 -1 14 4 21 13
19 12 -3 12 0 1 12 -7 9 -9 16 -4 16 5 0 0 8 -11 17 -16 12 -16 14 -3 10 10
-3 20 -2 23 3 4 6 1 10 -6 10 -8 0 -8 4 1 15 7 8 9 15 5 15 -4 0 -2 6 4 14 9
11 9 16 0 22 -8 5 -9 3 -4 -6 5 -9 4 -11 -4 -6 -6 4 -8 13 -4 19 13 21 13 58
0 50 -7 -4 -6 0 2 10 7 9 17 14 22 12 4 -3 2 7 -6 21 -14 27 -4 71 13 60 4 -2
7 17 7 42 -1 35 -5 46 -15 44 -10 -2 -11 0 -2 11 7 8 8 17 4 21 -4 4 -2 7 3 6
21 -5 23 1 15 31 -9 31 -9 31 12 13 l21 -19 -18 28 c-10 16 -13 27 -6 27 6 0
11 -5 11 -11 0 -5 4 -7 10 -4 13 8 -11 35 -25 28 -5 -2 0 4 13 13 12 9 22 26
22 38 0 17 -2 19 -11 6 -9 -13 -10 -13 -6 0 2 9 13 14 28 12 l24 -2 -25 15
c-14 9 -17 14 -8 11 10 -3 20 -1 23 4 6 9 -9 15 -29 11 -5 -1 -4 4 2 12 7 8
10 16 7 19 -3 2 2 5 10 5 11 0 12 -4 4 -14 -8 -9 -8 -13 0 -13 6 0 11 5 11 10
0 21 2 26 18 45 17 20 17 20 -5 2 -16 -14 -23 -15 -29 -6 -5 8 -3 10 6 4 10
-6 12 -4 7 8 -4 10 -2 16 5 14 7 -1 12 12 13 32 0 22 6 36 15 38 13 4 13 3 0
-7 -13 -10 -13 -11 0 -7 8 2 16 9 16 15 1 7 2 19 3 28 0 8 5 13 10 9 5 -3 12
-1 15 4 4 5 1 13 -5 17 -8 4 -9 3 -5 -4 5 -8 1 -10 -9 -6 -14 6 -13 9 5 21 15
11 19 21 14 36 -6 22 -6 22 10 2 9 -11 16 -15 15 -10 -4 32 2 47 17 41 12 -4
15 -2 11 9 -6 14 7 28 31 31 6 1 10 -1 7 -6 -3 -5 3 -7 12 -6 9 2 19 9 21 17
3 11 1 11 -8 -1 -10 -13 -11 -13 -7 0 2 8 10 14 16 12 6 -1 11 2 11 7 0 5 9 7
20 4 16 -4 19 -2 14 11 -4 12 -2 15 9 10 8 -3 18 0 23 7 5 8 3 10 -6 4 -8 -5
-11 -3 -8 6 3 8 11 13 17 11 8 -1 9 2 5 10 -5 7 -10 22 -11 33 -2 16 -1 17 6
5 5 -8 7 -18 5 -22 -11 -18 4 -6 29 21 21 24 23 30 11 35 -9 3 -12 1 -9 -4 3
-6 1 -10 -4 -10 -15 0 -14 12 5 38 8 12 22 22 30 22 8 0 13 3 11 8 -7 10 19
32 29 24 4 -4 4 -1 0 6 -6 10 -11 10 -21 2 -10 -8 -15 -8 -21 1 -4 7 -3 10 2
6 5 -3 18 1 29 9 10 8 15 14 11 14 -5 0 3 9 17 20 17 14 23 26 20 40 -3 11
-10 17 -16 13 -6 -3 -7 -1 -3 5 4 6 13 9 21 5 15 -5 21 12 8 20 -5 2 -3 2 4 1
7 -2 15 1 18 6 4 6 1 10 -5 10 -6 0 -9 4 -5 10 3 5 12 7 20 3 10 -3 15 1 15
12 0 9 -4 13 -10 10 -5 -3 -10 -1 -10 6 0 7 10 9 27 6 26 -5 26 -4 8 9 -18 14
-18 14 3 14 24 0 30 15 10 23 -10 4 -10 6 0 6 8 1 10 6 6 14 -4 6 2 4 13 -5
11 -10 24 -18 29 -18 5 0 1 5 -8 11 -10 5 -18 15 -18 20 0 6 5 7 11 3 8 -5 8
-1 0 14 -9 18 -8 19 12 14 20 -5 21 -4 8 12 -8 9 -11 19 -7 23 3 3 6 2 6 -3 0
-5 9 -10 20 -11 11 -1 18 2 15 7 -3 5 0 12 6 16 9 5 6 11 -7 22 -16 13 -17 14
-1 9 9 -4 17 -2 17 4 0 6 4 8 9 5 5 -4 7 3 4 14 -3 11 0 26 6 33 6 8 7 18 3
22 -4 5 -1 5 6 1 9 -5 9 -13 2 -26 -7 -13 -7 -21 2 -26 6 -4 8 -3 5 3 -4 6 3
23 15 38 12 16 17 30 11 33 -12 8 -13 43 -1 36 5 -3 6 -10 3 -15 -4 -5 -1 -9
5 -9 7 0 9 8 5 19 -3 11 -1 22 5 26 6 3 7 11 4 17 -5 8 -1 9 10 5 14 -5 15 -3
6 12 -7 15 -6 20 6 25 12 5 15 2 10 -11 -6 -14 -4 -15 5 -6 16 16 3 32 -24 27
l-22 -5 23 10 c12 6 22 15 22 21 0 6 4 9 8 6 5 -3 9 1 9 9 0 8 -4 12 -8 10 -6
-4 -6 3 0 34 1 2 7 -2 15 -8 12 -10 13 -8 9 10 -4 14 -2 20 4 16 6 -4 9 6 9
26 -1 18 3 35 8 39 7 5 2 8 -9 8 -18 0 -18 2 5 21 14 11 19 18 13 14 -7 -3
-13 -1 -13 5 0 6 -4 9 -8 6 -5 -3 -9 1 -9 8 0 7 6 13 13 13 7 0 10 -5 7 -11
-4 -6 1 -5 10 3 20 16 22 22 5 19 -7 -2 -14 8 -16 22 -3 24 -3 25 12 5 l16
-20 -6 20 c-4 11 -14 26 -22 33 -9 6 -11 12 -5 12 6 0 9 11 8 25 -2 14 1 25 5
25 12 0 21 -16 13 -24 -13 -12 -11 -33 3 -33 10 0 11 4 3 13 -7 8 -7 14 1 19
6 3 7 12 3 18 -4 7 -8 18 -9 25 -2 8 -10 19 -19 26 -15 11 -14 12 4 12 11 0
18 -4 15 -7 -2 -4 0 -10 5 -13 10 -7 9 6 -3 41 -4 13 -4 28 1 35 13 22 12 70
-3 64 -7 -3 -18 3 -26 12 -11 15 -11 15 3 4 13 -10 19 -9 30 5 12 14 12 16 -1
11 -11 -4 -16 1 -18 15 -1 17 1 19 8 7 7 -10 10 -11 10 -2 0 23 -2 27 -12 24
-5 -1 -7 2 -3 8 4 6 16 8 28 5 19 -5 19 -4 -3 9 -22 14 -17 22 12 17 4 0 4 7
1 16 -4 11 -8 13 -11 5 -2 -7 -11 -12 -20 -11 -11 0 -12 2 -4 6 6 2 10 9 7 14
-4 5 -2 16 3 26 6 9 6 29 2 45 -6 17 -5 30 2 34 7 4 8 2 4 -4 -5 -8 -1 -10 10
-5 11 4 13 8 6 11 -7 2 -12 8 -12 13 0 6 5 7 12 3 7 -4 8 -3 4 5 -6 9 -11 9
-21 1 -10 -8 -15 -8 -21 1 -4 8 -3 9 4 5 7 -4 12 -1 12 9 0 9 4 14 9 10 5 -3
13 0 17 6 4 7 3 9 -3 6 -12 -8 -33 34 -29 59 2 11 -2 25 -8 33 -8 11 -8 13 2
7 6 -4 12 -2 12 3 0 6 5 10 11 9 6 -2 14 3 16 11 4 9 0 11 -16 6 -16 -5 -20
-3 -15 9 3 9 11 13 18 9 8 -4 8 -2 -1 7 -6 7 -9 19 -6 28 5 11 3 13 -7 7 -8
-5 -11 -4 -6 3 3 6 16 9 27 7 17 -4 19 -2 9 10 -10 12 -10 15 1 15 10 0 10 3
3 8 -13 8 -13 50 1 72 8 13 7 13 -8 1 -12 -9 -17 -10 -17 -2 0 7 -5 9 -12 5
-7 -4 -8 -3 -4 5 4 6 11 9 16 6 5 -3 12 0 16 6 4 8 3 9 -4 5 -7 -4 -12 -2 -12
4 0 6 -3 9 -8 6 -4 -2 -8 9 -8 25 -2 30 9 38 22 17 4 -7 3 -8 -5 -4 -7 5 -10
2 -9 -6 3 -15 18 -28 33 -28 6 0 5 4 -2 8 -13 8 -12 29 1 51 6 10 5 12 -3 7
-6 -4 -14 0 -17 9 -5 13 -9 13 -23 3 -14 -11 -14 -11 -4 3 7 9 10 19 6 22 -12
13 13 7 27 -5 8 -7 7 -4 -3 8 -9 11 -14 24 -10 27 3 4 1 7 -5 7 -6 0 -16 -8
-21 -17 -6 -10 -11 -13 -11 -6 0 6 5 15 10 18 6 4 7 11 4 17 -4 6 -2 8 4 4 6
-3 14 -1 18 5 4 8 3 9 -4 5 -11 -7 -17 6 -13 27 1 5 -3 6 -9 2 -6 -3 -7 -11
-4 -17 4 -7 2 -8 -4 -4 -6 4 -8 14 -5 23 4 10 2 14 -4 10 -5 -3 -10 0 -11 8
-1 8 -3 22 -4 30 -1 9 -5 11 -12 6 -13 -11 -39 7 -44 29 -2 8 -11 22 -20 30
-14 14 -15 13 -3 -2 8 -10 11 -18 8 -18 -4 0 -18 17 -32 37 -14 21 -25 33 -25
27 0 -5 6 -16 13 -23 10 -10 9 -11 -5 -6 -10 4 -18 11 -18 17 0 5 -4 6 -10 3
-5 -3 -10 -1 -10 4 0 6 -6 10 -12 8 -8 -1 -12 6 -10 17 3 18 2 18 -14 5 -11
-8 -15 -9 -10 -1 4 6 3 12 -1 12 -5 0 -15 -6 -22 -12 -7 -7 -12 -8 -11 -3 5
24 -1 46 -10 40 -5 -3 -10 -2 -10 4 0 5 6 12 13 14 8 4 9 6 0 6 -6 1 -18 -6
-26 -14 -13 -13 -16 -12 -23 3 -4 9 -8 23 -10 30 -1 8 -6 17 -10 20 -4 4 -4
-1 -1 -10 4 -12 1 -18 -9 -18 -11 0 -14 5 -10 16 6 15 4 15 -10 3 -16 -13 -16
-12 -7 6 10 19 8 20 -32 19 -38 0 -42 2 -37 20 5 18 3 19 -10 9 -18 -15 -32
-5 -17 13 7 8 6 14 -2 20 -7 4 -9 3 -6 -3 4 -6 0 -13 -8 -17 -9 -3 -15 0 -15
10 0 12 -4 13 -22 4 -21 -10 -21 -10 2 11 16 15 19 20 8 16 -10 -4 -18 -2 -18
3 0 6 -11 10 -25 10 -14 0 -25 6 -25 13 0 8 -4 7 -10 -3 -7 -10 -10 -11 -11
-2 -3 22 -4 27 -12 40 -5 6 -14 12 -20 12 -7 0 -6 -4 3 -10 10 -6 11 -10 3
-10 -19 0 -50 34 -45 51 2 8 -3 5 -13 -6 -15 -18 -16 -18 -11 -1 5 13 2 17 -9
12 -9 -3 -23 3 -32 13 -9 11 -23 17 -31 13 -11 -4 -14 -1 -10 10 4 8 -2 22
-13 32 -22 18 -33 21 -24 6 3 -5 -1 -10 -10 -10 -9 0 -13 5 -10 10 6 10 -7 14
-34 11 -8 -2 -10 2 -5 10 5 9 2 10 -9 6 -9 -3 -16 -3 -16 1 1 4 1 14 0 22 -1
12 -4 12 -15 -3 -13 -16 -15 -16 -24 13 -6 16 -14 30 -17 30 -3 0 -3 -4 0 -10
3 -5 1 -10 -6 -10 -6 0 -9 8 -7 18 4 13 -1 18 -16 20 -17 1 -18 -1 -6 -8 8 -5
10 -10 5 -10 -18 0 -55 30 -55 45 0 7 -12 23 -26 34 -21 16 -30 18 -46 10 -15
-8 -19 -8 -14 0 4 6 2 11 -5 11 -8 0 -8 4 1 15 11 13 10 14 -2 10 -9 -4 -25 5
-38 18 -14 14 -30 22 -39 19 -9 -3 -12 -1 -7 6 3 6 1 14 -5 18 -7 4 -9 3 -5
-4 3 -6 2 -13 -4 -17 -5 -3 -10 3 -10 14 0 24 -10 27 -29 9 -11 -10 -13 -10
-7 0 5 7 1 12 -10 12 -14 0 -14 3 -4 15 7 9 10 18 6 22 -3 3 -6 1 -6 -6 0 -8
-5 -9 -19 -2 -10 6 -22 7 -27 3 -5 -4 -2 1 5 11 15 19 9 22 -18 8 -13 -7 -18
-6 -18 4 0 8 5 11 10 8 6 -3 7 -1 3 5 -5 9 -13 9 -28 1 -15 -8 -19 -8 -14 0 4
6 3 11 -3 11 -5 0 -13 9 -16 20 -4 11 -11 17 -17 14 -6 -4 -5 -10 3 -15 8 -5
9 -9 3 -9 -6 0 -18 8 -25 17 -8 9 -9 14 -4 11 6 -4 11 2 11 12 0 17 -2 18 -16
5 -19 -18 -31 -10 -22 13 5 15 4 15 -11 3 -14 -11 -18 -11 -23 3 -4 10 -13 15
-21 12 -8 -3 -11 -1 -8 4 3 6 1 10 -5 10 -7 0 -9 8 -4 22 6 21 6 21 -10 5 -15
-15 -36 -15 -36 -1 0 3 5 2 10 -1 6 -3 10 -1 10 4 0 6 -9 11 -21 11 -11 0 -18
4 -14 9 3 5 1 12 -5 16 -6 4 -7 11 -4 17 4 7 2 8 -5 4 -6 -4 -9 -12 -6 -17 4
-5 2 -9 -4 -9 -5 0 -12 9 -16 19 -3 11 -13 22 -22 25 -14 6 -14 4 -2 -11 12
-16 12 -17 -2 -6 -9 7 -18 10 -22 7 -3 -3 -3 3 0 15 3 12 1 21 -6 21 -6 0 -11
8 -11 18 0 14 -2 15 -10 2 -8 -13 -10 -12 -10 3 0 10 -4 15 -10 12 -5 -3 -10
-1 -10 5 0 6 -6 8 -12 4 -10 -5 -10 -4 -1 6 13 14 7 40 -9 40 -6 0 -4 -7 3
-17 13 -15 12 -15 -9 -2 -12 8 -18 15 -12 17 5 2 10 8 10 13 0 6 -4 8 -9 5 -5
-3 -15 2 -22 12 -12 15 -12 16 2 4 14 -10 17 -9 22 8 3 11 2 18 -2 16 -4 -3
-13 -1 -21 5 -12 7 -12 9 3 9 15 0 16 2 5 14 -7 8 -17 11 -23 8 -5 -3 -4 1 3
10 9 11 9 18 2 21 -6 3 -5 4 2 3 7 -2 13 -8 13 -13 0 -6 2 -14 6 -17 3 -3 5 5
5 19 0 13 -3 22 -6 20 -14 -9 -33 15 -35 44 -1 16 2 28 6 25 4 -2 10 0 14 6 3
5 -2 10 -12 10 -15 0 -16 2 -3 10 10 6 11 10 3 10 -7 0 -13 4 -13 10 0 5 8 7
18 4 9 -3 2 4 -15 16 -39 26 -39 26 -14 26 11 0 17 -5 14 -10 -3 -5 -1 -6 6
-2 6 4 9 12 5 17 -3 5 -11 6 -17 2 -7 -4 -5 1 3 12 14 17 13 17 -10 10 -24 -7
-25 -7 -5 9 12 10 14 15 6 14 -9 -2 -15 7 -16 22 -1 14 -5 35 -9 48 -5 14 -3
22 5 22 9 0 8 4 -1 15 -7 8 -9 15 -6 15 4 0 1 6 -6 14 -7 8 -17 11 -22 8 -5
-3 -6 0 -2 7 6 9 11 9 21 1 9 -8 15 -8 20 0 4 6 1 9 -6 8 -7 -2 -14 3 -15 10
-1 6 -3 15 -4 20 -1 4 -2 10 -1 15 1 6 -14 11 -31 8 -4 0 -4 7 -1 16 4 11 3
14 -5 9 -8 -5 -10 -2 -6 8 4 9 1 16 -6 16 -7 0 -3 9 10 20 13 11 19 20 14 20
-6 0 -16 -6 -24 -12 -8 -7 -11 -9 -7 -4 4 5 2 15 -5 23 -8 10 -8 12 4 8 9 -4
15 0 15 9 0 8 -8 13 -18 11 -17 -4 -20 18 -4 32 4 4 5 3 2 -3 -3 -6 0 -11 8
-11 10 0 6 9 -11 30 -13 16 -21 34 -18 39 4 7 2 8 -5 4 -6 -4 -8 -12 -5 -18 4
-7 2 -8 -4 -4 -6 4 -8 14 -5 23 5 12 3 14 -8 8 -12 -7 -12 -6 0 9 13 16 13 17
-3 14 -13 -2 -20 4 -22 22 -3 18 -2 21 5 10 5 -8 7 -18 4 -24 -3 -5 -1 -6 5
-2 18 11 2 36 -32 52 -17 8 -24 12 -16 10 10 -2 16 3 16 14 0 12 -5 16 -16 12
-12 -5 -13 -3 -2 10 10 12 10 17 -1 27 -8 6 -18 7 -22 3 -5 -4 -5 1 -2 10 3
10 1 20 -5 24 -6 4 -8 3 -4 -4 3 -6 3 -13 -2 -16 -4 -2 -9 4 -9 15 -1 10 3 19
9 19 6 0 8 3 5 6 -4 4 -13 1 -22 -6 -18 -15 -19 -7 -4 22 8 15 8 19 0 14 -10
-7 -16 6 -12 27 1 5 -3 6 -8 2 -6 -3 -8 -13 -5 -23 5 -13 4 -14 -4 -3 -5 7 -8
23 -5 35 4 19 3 19 -7 3 -6 -9 -16 -15 -21 -11 -6 4 -3 14 8 26 18 20 18 21
-4 9 -28 -14 -40 -14 -25 1 15 15 16 32 2 23 -5 -3 -10 -1 -10 5 0 6 -5 8 -12
4 -7 -5 -9 -2 -5 9 7 19 -11 34 -39 32 -11 -1 -21 4 -21 11 0 10 4 11 13 3 8
-7 14 -7 19 1 4 6 3 10 -2 9 -17 -4 -43 14 -36 25 4 6 -1 5 -10 -3 -9 -7 -17
-9 -17 -4 0 6 -11 23 -25 39 -14 16 -25 33 -25 37 0 5 -5 5 -11 2 -6 -5 -4
-12 8 -22 17 -13 16 -13 -4 -3 -14 6 -20 16 -16 25 4 13 1 14 -21 5 -18 -6
-25 -6 -21 0 3 6 1 10 -6 10 -8 0 -8 4 1 16 8 8 9 14 4 13 -17 -5 -54 12 -48
22 3 5 2 9 -3 8 -4 -1 -10 -1 -13 1 -12 4 -54 8 -42 4 6 -3 9 -10 6 -16 -4 -5
-15 3 -26 19 -11 15 -17 20 -14 9 5 -14 3 -16 -6 -9 -16 11 -48 11 -67 -1 -8
-5 -7 1 4 18 23 34 11 33 -21 -1 l-25 -28 17 28 c9 15 15 28 13 28 -13 5 -49
5 -44 1 6 -6 -26 -31 -40 -32 -5 0 -3 5 5 10 13 8 12 10 -4 10 -10 0 -25 -8
-33 -17 -10 -14 -13 -14 -11 -3 2 10 -5 15 -19 15 -11 0 -25 4 -29 8 -5 4 -1
5 9 1 9 -3 17 -2 17 4 0 6 -8 9 -17 7 -10 -1 -24 2 -31 8 -9 7 -16 7 -23 0 -8
-8 -7 -13 2 -18 8 -5 10 -4 5 3 -4 7 -3 12 3 12 6 0 15 -10 22 -21 9 -17 8
-20 -3 -13 -13 9 -29 13 -60 16 -10 1 -18 6 -18 11 0 4 -4 5 -10 2 -5 -3 -10
-11 -10 -16 0 -6 5 -7 12 -3 7 5 8 3 4 -5 -5 -7 -11 -10 -14 -7 -3 3 -11 1
-18 -5 -8 -7 -14 -7 -19 0 -4 7 -15 6 -34 -4 -16 -8 -31 -11 -34 -8 -4 3 -9
-2 -13 -11 -3 -9 -11 -16 -16 -16 -6 0 -5 7 2 15 7 9 10 18 6 22 -3 3 -6 1 -6
-6 0 -9 -9 -11 -27 -7 -19 4 -23 3 -14 -3 10 -7 11 -13 1 -27 -10 -16 -11 -16
-6 -1 7 21 -1 22 -20 2 -9 -8 -25 -15 -37 -15 -12 0 -29 -5 -37 -11 -12 -8
-10 -9 8 -4 33 9 27 -1 -8 -14 -17 -5 -28 -7 -26 -2 3 4 -1 8 -9 8 -8 0 -15
-3 -15 -7 0 -3 -6 -14 -13 -25 -11 -14 -16 -15 -22 -5 -5 8 -4 11 2 7 5 -3 10
0 10 8 0 11 -4 12 -14 4 -7 -6 -10 -16 -6 -22 4 -6 0 -8 -9 -4 -23 8 -29 -2
-16 -27 10 -19 10 -20 -5 -7 -14 11 -18 11 -23 -4 -5 -13 -9 -14 -15 -3 -7 10
-9 9 -9 -5 0 -10 -4 -16 -9 -12 -5 3 -12 1 -16 -5 -3 -5 -11 -10 -16 -10 -6 0
-7 5 -3 12 4 7 3 8 -4 4 -6 -4 -9 -13 -5 -21 4 -11 1 -13 -11 -9 -9 3 -16 1
-16 -5 0 -6 5 -11 10 -11 15 0 -11 -26 -27 -28 -7 -1 -20 -3 -28 -4 -8 -1 -15
-10 -15 -21 0 -13 -5 -17 -16 -13 -8 3 -12 2 -9 -3 3 -5 -5 -17 -17 -25 -12
-9 -19 -16 -14 -16 5 0 3 -6 -3 -13 -6 -8 -9 -17 -6 -20 3 -4 2 -5 -2 -2 -3 3
-12 0 -19 -6 -8 -6 -14 -7 -18 0 -4 6 -14 8 -24 5 -14 -5 -15 -4 -2 5 11 8 12
11 2 11 -8 0 -10 5 -6 13 6 9 4 9 -8 -1 -13 -10 -18 -10 -24 -1 -5 8 -3 9 6 4
9 -5 11 -4 6 4 -6 9 -11 9 -21 1 -10 -8 -15 -8 -20 0 -4 6 -13 9 -21 6 -8 -3
-13 0 -11 6 1 7 -3 12 -10 13 -6 0 -15 4 -20 9 -5 5 -3 6 5 2 7 -4 12 -2 12 6
1 8 6 6 15 -6 8 -11 18 -16 22 -13 9 10 -29 36 -44 30 -7 -3 -13 2 -13 12 0 9
5 13 10 10 16 -10 11 1 -7 16 -10 8 -14 9 -10 2 4 -6 3 -14 -3 -18 -5 -3 -10
1 -10 10 0 9 -4 14 -9 11 -5 -3 -15 2 -22 12 -12 15 -12 16 2 4 14 -10 18 -10
22 1 3 8 -1 14 -9 15 -8 1 -20 3 -28 4 -8 1 -12 8 -8 16 4 11 1 13 -9 8 -8 -4
-5 0 6 9 20 17 20 17 -2 11 -18 -6 -25 -1 -38 24 -9 17 -13 35 -9 41 3 6 -2 9
-12 7 -12 -2 -19 3 -18 13 1 9 -5 16 -12 17 -8 1 -20 3 -28 4 -8 1 -12 8 -8
16 4 11 1 13 -7 7 -10 -5 -11 -2 -6 14 5 16 3 20 -9 15 -14 -5 -20 4 -18 27 1
3 -6 6 -13 6 -11 0 -12 -4 -4 -13 7 -8 7 -14 -1 -19 -5 -3 -10 -5 -11 -3 -7
28 -6 45 4 58 9 12 9 13 -3 3 -16 -15 -34 -17 -26 -4 3 5 -1 14 -9 21 -8 7
-15 9 -15 5 0 -4 -6 -2 -13 4 -8 6 -17 8 -20 4 -4 -3 -7 -1 -7 6 0 8 -8 11
-20 8 -11 -3 -18 -1 -14 4 3 5 13 9 22 10 10 0 12 3 5 5 -7 3 -21 0 -33 -6
-11 -6 -20 -7 -19 -3 4 21 -2 33 -13 27 -8 -5 -9 -2 -5 10 5 14 3 15 -13 6
-13 -7 -21 -7 -26 2 -5 7 -3 8 6 3 8 -5 11 -4 6 3 -4 6 -13 9 -22 5 -8 -3 -21
2 -28 12 -7 10 -18 15 -24 11 -6 -3 -15 1 -20 10 -8 15 -10 15 -15 0 -4 -10
-3 -15 3 -11 5 3 7 -1 4 -9 -5 -12 -9 -13 -19 -3 -9 9 -10 14 -1 19 6 5 2 8
-12 8 -12 0 -21 5 -20 13 3 12 -7 13 -55 4 -16 -4 -25 -2 -22 4 4 5 10 7 15 4
5 -3 11 -1 14 4 7 10 -20 9 -30 -2 -4 -4 -13 -2 -19 3 -12 10 -59 0 -96 -20
-10 -5 -21 -4 -28 3 -9 9 -14 9 -20 -2 -6 -9 -11 -10 -15 -2 -4 6 -2 11 3 11
6 0 11 5 11 10 0 12 -41 -7 -52 -24 -7 -10 -12 6 -9 27 2 14 -17 7 -23 -9 -3
-8 -2 -13 2 -10 5 3 9 -1 9 -8 0 -7 -6 -13 -13 -13 -7 0 -11 4 -8 9 10 15 -9
8 -23 -9 -8 -10 -12 -12 -8 -5 7 14 -4 16 -25 2 -9 -5 -19 -5 -27 2 -11 8 -12
7 -6 -8 6 -16 4 -17 -9 -7 -15 13 -28 8 -28 -11 0 -6 5 -4 10 4 6 9 10 10 10
3 0 -20 -17 -24 -33 -8 -13 13 -16 13 -21 -1 -4 -10 -2 -13 6 -8 7 4 8 3 4 -5
-6 -8 -12 -9 -20 -2 -13 11 -26 5 -26 -11 0 -5 6 -6 13 -2 7 4 9 3 4 -2 -5 -5
-12 -9 -15 -9 -4 0 -12 -4 -19 -8 -6 -4 -15 -2 -19 4 -5 8 -3 9 7 4 11 -6 12
-5 2 5 -18 20 -29 3 -14 -22 12 -20 12 -20 -10 -4 -13 9 -28 16 -34 16 -5 0
-2 -5 8 -11 24 -14 12 -30 -18 -25 -31 6 -42 -9 -18 -23 28 -16 2 -13 -30 4
l-28 14 22 -32 c12 -18 16 -26 9 -19 -19 16 -40 15 -40 -2 0 -8 -5 -18 -12
-22 -8 -5 -9 -2 -5 10 4 10 3 15 -3 11 -6 -3 -10 -12 -10 -20 0 -8 -5 -17 -12
-21 -7 -4 -8 -3 -4 4 10 16 -5 14 -28 -3 -10 -8 -23 -12 -29 -8 -6 3 -7 1 -3
-5 5 -9 13 -9 29 0 19 10 20 9 10 -4 -7 -8 -9 -18 -5 -22 4 -5 0 -7 -8 -6 -36
5 -52 0 -46 -16 5 -12 2 -15 -13 -11 -12 3 -18 -1 -17 -12 1 -10 -6 -15 -17
-15 -12 1 -15 -2 -8 -10 6 -7 4 -20 -6 -36 -8 -14 -12 -18 -10 -9 3 9 -1 16
-8 16 -7 0 -11 -6 -8 -12 2 -7 -5 -15 -16 -18 -15 -3 -19 -11 -16 -27 5 -28
-9 -58 -19 -41 -4 6 -2 11 4 11 6 0 8 5 4 11 -12 20 -23 -13 -12 -35 10 -18 9
-19 -4 -9 -19 17 -32 4 -15 -15 11 -13 9 -14 -13 -2 -23 12 -24 12 -11 -4 12
-15 12 -16 -5 -10 -10 4 -15 3 -11 -1 4 -5 -3 -15 -15 -23 -13 -7 -15 -11 -5
-8 9 3 17 1 17 -4 0 -6 -5 -10 -11 -10 -5 0 -8 -4 -5 -9 3 -5 -3 -11 -14 -14
-11 -3 -20 -13 -20 -22 0 -9 5 -13 10 -10 6 4 8 11 5 16 -4 5 -1 9 5 9 17 0 6
-23 -16 -35 -25 -13 -81 -70 -61 -62 10 4 17 -2 21 -16 3 -12 3 -23 1 -26 -3
-2 -5 1 -5 7 0 7 -7 12 -15 12 -8 0 -15 -5 -15 -11 0 -5 4 -7 10 -4 6 3 7 -1
4 -9 -3 -9 -10 -13 -15 -10 -5 3 -9 -2 -9 -11 0 -9 -5 -13 -10 -10 -6 4 -10 3
-9 -2 3 -20 -2 -34 -11 -28 -6 3 -7 -1 -4 -9 4 -11 0 -16 -12 -16 -16 0 -16
-2 -4 -9 8 -6 19 -7 25 -3 5 3 4 -2 -4 -11 -7 -9 -21 -17 -29 -17 -13 0 -12
-3 4 -15 13 -11 14 -13 3 -9 -15 5 -34 -26 -30 -49 1 -5 -3 -6 -9 -2 -8 5 -7
11 1 21 8 10 8 14 0 14 -11 0 -15 -13 -11 -39 2 -13 0 -13 -16 0 -15 12 -15
10 2 -16 12 -19 14 -26 5 -20 -11 6 -13 4 -8 -9 5 -11 3 -15 -5 -10 -8 5 -9 2
-5 -10 5 -11 3 -15 -5 -10 -8 5 -9 2 -4 -11 5 -15 4 -16 -9 -5 -13 11 -14 10
-8 -6 6 -17 5 -18 -13 -4 -15 11 -16 11 -6 0 18 -21 15 -35 -5 -19 -15 13 -15
12 -3 -11 13 -24 12 -24 -5 -10 -15 12 -17 12 -10 1 6 -11 4 -13 -7 -8 -12 4
-14 1 -11 -14 3 -10 0 -25 -6 -32 -6 -8 -8 -17 -5 -20 4 -4 -8 -2 -25 3 -28 8
-31 7 -21 -5 14 -17 -1 -20 -17 -4 -8 8 -11 6 -10 -7 1 -12 -4 -18 -13 -16
-11 2 -10 -1 3 -12 18 -14 17 -14 -2 -21 -13 -4 -19 -11 -15 -18 4 -7 4 -9 -1
-5 -4 4 -27 -9 -51 -28 -36 -30 -45 -34 -50 -20 -3 9 -14 16 -23 16 -14 0 -14
-2 -1 -10 13 -8 12 -10 -2 -10 -10 0 -18 5 -18 11 0 8 -6 7 -17 -2 -15 -11
-16 -11 -5 1 15 18 16 34 0 24 -7 -4 -8 -3 -4 5 6 9 11 9 22 0 12 -10 13 -9 8
5 -3 9 -10 16 -16 16 -5 0 -8 8 -5 18 2 9 -3 29 -10 45 -7 15 -11 27 -8 27 3
0 1 9 -5 20 -6 12 -17 17 -28 14 -14 -5 -14 -4 -2 4 8 6 17 9 21 6 16 -10 1
30 -17 43 -16 12 -17 16 -6 34 8 12 11 24 8 27 -3 3 -6 1 -6 -5 0 -6 -7 -14
-16 -17 -14 -5 -15 -4 -4 9 11 13 10 18 -6 30 -16 13 -17 14 -1 9 13 -5 16 -2
14 15 -2 11 -7 24 -12 28 -4 5 -5 3 -1 -4 3 -6 1 -15 -6 -19 -7 -4 -10 -4 -6
1 4 4 2 17 -4 29 -15 27 -17 69 -3 78 6 5 5 8 -3 8 -7 0 -10 5 -7 10 3 6 2 10
-4 10 -5 0 -12 -6 -15 -12 -3 -7 -3 -3 0 10 4 15 1 22 -10 22 -8 0 -17 4 -20
9 -4 5 4 7 16 5 13 -2 17 -2 11 2 -7 3 -13 18 -13 34 0 16 -6 31 -12 33 -10 4
-10 6 0 6 6 1 12 6 12 12 0 5 -4 7 -10 4 -5 -3 -10 -1 -10 5 0 6 -4 8 -10 5
-6 -3 -7 1 -4 9 3 9 10 13 15 10 5 -3 6 2 3 11 -4 10 -13 14 -28 10 -11 -4
-16 -3 -11 2 16 13 41 48 30 41 -6 -4 -21 -1 -34 6 -16 9 -20 15 -12 21 9 5 8
10 -5 19 -20 15 -30 70 -11 60 7 -3 1 4 -12 15 -19 17 -20 21 -6 21 12 0 15 5
10 18 -4 9 -9 24 -10 32 -5 32 -18 50 -36 50 -23 0 -23 4 -2 38 17 26 17 27
-2 12 -11 -9 -16 -10 -11 -2 4 6 2 12 -3 12 -6 0 -11 5 -11 11 0 6 6 7 13 2 6
-4 4 5 -5 19 -13 20 -14 28 -5 31 9 4 9 6 0 6 -7 1 -13 13 -13 27 0 16 4 23
11 18 7 -4 6 3 -2 17 -7 13 -12 28 -11 32 1 5 -1 6 -5 4 -5 -3 -15 2 -23 11
-13 14 -12 15 3 9 9 -3 19 -1 23 5 4 7 3 8 -4 4 -12 -7 -16 5 -13 32 1 6 -3
12 -9 12 -6 0 -8 -4 -5 -10 3 -5 1 -10 -5 -10 -6 0 -8 10 -4 26 5 19 4 25 -5
20 -6 -4 -11 -1 -11 8 0 8 -8 20 -17 25 -10 6 -13 11 -7 11 5 0 15 -5 21 -11
8 -8 13 -7 18 3 5 7 5 10 1 6 -12 -10 -45 23 -38 40 4 11 2 13 -9 7 -12 -8
-12 -6 0 8 11 14 11 17 0 18 -8 1 -18 1 -22 0 -5 -1 -5 3 -2 9 4 6 13 9 21 6
8 -3 14 -3 14 0 0 2 -10 9 -22 14 -18 7 -19 9 -5 9 9 1 17 5 17 11 0 5 -6 7
-13 5 -6 -3 -18 5 -26 17 -10 18 -10 20 0 11 7 -7 17 -13 23 -13 5 0 -1 8 -12
19 -12 10 -22 23 -22 29 0 5 -7 13 -16 16 -13 5 -14 9 -5 20 9 11 9 16 0 22
-7 4 -9 3 -6 -3 4 -6 1 -13 -7 -16 -16 -6 -26 1 -26 17 0 6 5 4 10 -4 6 -9 10
-10 10 -3 0 19 -20 26 -26 9 -5 -14 -8 -14 -23 2 -9 10 -12 13 -8 6z m-456
-128 c0 -8 -5 -14 -11 -13 -6 1 -10 -4 -8 -11 1 -8 -2 -11 -8 -7 -8 5 -6 13 6
26 21 23 21 23 21 5z m2583 -148 c11 -22 10 -22 -4 -4 -13 16 -18 17 -31 6 -9
-7 -15 -8 -15 -2 0 10 15 19 32 21 4 1 12 -9 18 -21z m190 -38 c0 -5 -5 -10
-11 -10 -5 0 -7 5 -4 10 3 6 8 10 11 10 2 0 4 -4 4 -10z m-2786 -62 c-3 -4 -9
-8 -15 -8 -5 0 -9 4 -9 8 0 5 7 9 15 9 8 0 12 -4 9 -9z m706 -58 c0 -5 -5 -12
-10 -15 -6 -4 -9 -1 -8 7 2 7 -3 12 -10 10 -8 -1 -11 2 -7 7 6 11 35 3 35 -9z
m2288 4 c-1 -5 -9 -9 -16 -10 -10 -2 -11 1 -1 12 12 14 24 13 17 -2z m1422
-39 c-7 -9 -15 -13 -17 -11 -7 7 7 26 19 26 6 0 6 -6 -2 -15z m-239 -18 c-10
-9 -11 -8 -5 6 3 10 9 15 12 12 3 -3 0 -11 -7 -18z m459 -62 c0 -2 -5 -7 -12
-11 -7 -4 -8 -3 -4 4 7 11 -6 17 -27 13 -5 -1 -6 3 -2 9 6 9 45 -3 45 -15z
m-1500 -9 c0 -2 -7 -7 -16 -10 -8 -3 -12 -2 -9 4 6 10 25 14 25 6z m-2364
-104 c-4 -3 -14 2 -24 12 -16 18 -16 18 6 6 13 -6 21 -14 18 -18z m991 -18
c-3 -3 -12 -4 -19 -1 -8 3 -5 6 6 6 11 1 17 -2 13 -5z m3097 -32 c3 -5 -1 -9
-9 -9 -8 0 -12 4 -9 9 3 4 7 8 9 8 2 0 6 -4 9 -8z m-1300 -90 c3 -5 -1 -9 -9
-9 -8 0 -12 4 -9 9 3 4 7 8 9 8 2 0 6 -4 9 -8z m-2717 -78 c-3 -3 -12 -4 -19
-1 -8 3 -5 6 6 6 11 1 17 -2 13 -5z m4180 -69 c-15 -16 -19 -13 -11 9 3 9 10
13 15 10 5 -3 3 -11 -4 -19z m-3447 5 c0 -5 -5 -10 -11 -10 -5 0 -7 5 -4 10 3
6 8 10 11 10 2 0 4 -4 4 -10z m-1323 -174 c0 -8 -6 -12 -14 -9 -7 3 -10 9 -7
14 8 14 21 11 21 -5z m4879 -18 c3 -4 -1 -5 -10 -4 -8 1 -18 5 -22 8 -3 4 1 5
10 4 8 -1 18 -5 22 -8z m-3746 -198 c0 -5 -5 -10 -11 -10 -5 0 -7 5 -4 10 3 6
8 10 11 10 2 0 4 -4 4 -10z m3817 -6 c-3 -3 -12 -4 -19 -1 -8 3 -5 6 6 6 11 1
17 -2 13 -5z m-4197 -68 c0 -3 -4 -8 -10 -11 -5 -3 -10 -1 -10 4 0 6 5 11 10
11 6 0 10 -2 10 -4z m-580 -164 c0 -13 -12 -22 -22 -16 -10 6 -1 24 13 24 5 0
9 -4 9 -8z m-45 -242 c3 -5 1 -10 -4 -10 -6 0 -11 5 -11 10 0 6 2 10 4 10 3 0
8 -4 11 -10z m-30 -9 c3 -5 2 -12 -3 -15 -5 -3 -9 1 -9 9 0 17 3 19 12 6z
m-250 -99 c-3 -3 -11 0 -18 7 -9 10 -8 11 6 5 10 -3 15 -9 12 -12z m-80 -22
c10 8 15 8 21 -1 4 -7 3 -9 -4 -5 -6 3 -13 2 -17 -4 -8 -13 -25 -3 -24 13 0 8
2 8 6 -1 4 -9 8 -10 18 -2z m-125 -67 c0 -3 -6 -3 -14 0 -7 3 -19 0 -25 -6 -8
-8 -11 -8 -11 0 0 6 6 13 13 16 13 4 37 -2 37 -10z m-284 -95 c4 -7 3 -8 -4
-4 -7 4 -12 2 -12 -5 0 -7 -3 -10 -6 -6 -6 5 3 27 11 27 2 0 7 -5 11 -12z
m-96 -59 c13 -9 12 -10 -2 -5 -10 3 -18 1 -18 -5 0 -6 -5 -7 -10 -4 -11 7 -4
25 8 25 4 0 14 -5 22 -11z m6428 -175 c11 -9 11 -13 1 -19 -8 -6 -10 -4 -4 5
6 10 4 12 -9 7 -9 -4 -14 -3 -11 2 3 5 1 12 -5 16 -5 3 -10 11 -10 18 0 6 5 5
13 -4 6 -8 18 -19 25 -25z m105 -70 c-1 -5 -7 -10 -15 -12 -10 -3 -10 -1 1 6
11 8 9 11 -8 17 -11 3 -21 11 -21 17 0 6 10 4 23 -4 12 -9 21 -19 20 -24z
m-6583 -169 c0 -5 -5 -3 -10 5 -5 8 -10 20 -10 25 0 6 5 3 10 -5 5 -8 10 -19
10 -25z m6851 1 c15 9 10 -3 -8 -17 -11 -10 -14 -10 -9 -1 4 7 2 12 -4 12 -6
0 -8 5 -4 12 6 9 9 9 12 0 2 -7 8 -10 13 -6z m126 -92 c-3 -3 -12 -4 -19 -1
-8 3 -5 6 6 6 11 1 17 -2 13 -5z m48 -24 c-3 -5 -12 -10 -18 -10 -7 0 -6 4 3
10 19 12 23 12 15 0z m-6995 -21 c0 -5 -4 -9 -8 -9 -5 0 -9 7 -9 15 0 8 4 12
9 9 4 -3 8 -9 8 -15z m7070 -29 c0 -5 -2 -10 -4 -10 -3 0 -8 5 -11 10 -3 6 -1
10 4 10 6 0 11 -4 11 -10z m-7040 -324 c0 -3 -4 -8 -10 -11 -5 -3 -10 -1 -10
4 0 6 5 11 10 11 6 0 10 -2 10 -4z m7619 -312 c3 2 6 -13 6 -34 0 -27 -3 -36
-13 -32 -11 4 -11 6 0 13 7 5 8 9 3 9 -6 0 -11 15 -11 33 -1 17 1 26 3 19 3
-6 8 -10 12 -8z m-7622 -379 c0 -8 -4 -12 -9 -9 -5 3 -6 10 -3 15 9 13 12 11
12 -6z m7610 -245 c-2 -11 -8 -25 -14 -31 -9 -9 -11 -7 -8 7 2 11 4 21 5 24 1
3 2 8 1 13 0 4 3 7 9 7 5 0 8 -9 7 -20z m-7 -70 c0 -5 -2 -10 -4 -10 -3 0 -8
5 -11 10 -3 6 -1 10 4 10 6 0 11 -4 11 -10z m-41 -336 c-14 -13 -16 -13 -16 0
0 8 4 13 9 10 4 -3 8 0 8 7 0 7 3 9 7 5 4 -3 0 -13 -8 -22z m-7539 -204 c0 -5
-2 -10 -4 -10 -3 0 -8 5 -11 10 -3 6 -1 10 4 10 6 0 11 -4 11 -10z m7450 -45
c0 -12 -19 -12 -23 0 -4 9 -1 12 9 8 7 -3 14 -7 14 -8z m-250 -389 c0 -2 -6
-9 -14 -15 -11 -9 -16 -9 -22 0 -4 8 -3 9 4 5 7 -4 12 -2 12 3 0 6 5 11 10 11
6 0 10 -2 10 -4z m-7420 -425 c0 -6 -4 -12 -8 -15 -5 -3 -9 1 -9 9 0 8 4 15 9
15 4 0 8 -4 8 -9z m7 -333 c-3 -8 -6 -5 -6 6 -1 11 2 17 5 13 3 -3 4 -12 1
-19z m-40 -64 c-3 -3 -12 -4 -19 -1 -8 3 -5 6 6 6 11 1 17 -2 13 -5z m6941
-149 c-3 -3 -9 2 -12 12 -6 14 -5 15 5 6 7 -7 10 -15 7 -18z m-7028 11 c0 -3
-4 -8 -10 -11 -5 -3 -10 -1 -10 4 0 6 5 11 10 11 6 0 10 -2 10 -4z m7015 -86
c3 -5 1 -10 -4 -10 -6 0 -11 5 -11 10 0 6 2 10 4 10 3 0 8 -4 11 -10z m-7181
-41 c-3 -5 -10 -7 -15 -3 -5 3 -7 10 -3 15 3 5 10 7 15 3 5 -3 7 -10 3 -15z
m7167 -26 c13 -16 12 -17 -3 -4 -10 7 -18 15 -18 17 0 8 8 3 21 -13z m-7206
-11 c-3 -3 -11 0 -18 7 -9 10 -8 11 6 5 10 -3 15 -9 12 -12z m7212 -47 c0 -8
-4 -12 -9 -9 -5 3 -6 10 -3 15 9 13 12 11 12 -6z m282 -479 c9 -11 9 -16 0
-22 -7 -4 -9 -3 -5 4 3 6 -2 15 -11 21 -10 6 -13 11 -7 11 6 0 17 -6 23 -14z
m-8162 -61 c0 -8 -4 -12 -9 -9 -5 3 -6 10 -3 15 9 13 12 11 12 -6z m8201 -20
c-3 -3 -9 2 -12 12 -6 14 -5 15 5 6 7 -7 10 -15 7 -18z m-8128 -20 c0 -8 -4
-15 -10 -15 -5 0 -7 7 -4 15 4 8 8 15 10 15 2 0 4 -7 4 -15z m125 -295 c-3 -5
-1 -11 4 -11 26 -3 30 -4 37 -11 8 -8 -31 -2 -46 7 -10 6 -5 25 6 25 3 0 2 -4
-1 -10z m185 -95 c-7 -9 -15 -13 -19 -10 -3 3 1 10 9 15 21 14 24 12 10 -5z
m205 -83 c-3 -3 -11 0 -18 7 -9 10 -8 11 6 5 10 -3 15 -9 12 -12z m384 -519
c0 -11 -3 -13 -6 -5 -2 6 -10 9 -15 6 -7 -4 -8 -2 -4 4 11 18 26 14 25 -5z
m-68 -160 c13 -16 12 -17 -3 -4 -10 7 -18 15 -18 17 0 8 8 3 21 -13z m7495
-199 c0 -20 -11 -25 -11 -6 0 4 -3 12 -7 18 -4 6 -1 11 5 11 7 0 13 -11 13
-23z m-6955 -57 c-10 -9 -11 -8 -5 6 3 10 9 15 12 12 3 -3 0 -11 -7 -18z m124
13 c-3 -5 2 -10 11 -10 10 0 15 -3 11 -6 -10 -10 -39 5 -32 16 3 5 8 10 11 10
3 0 2 -4 -1 -10z m-577 -32 c-2 -7 3 -12 10 -10 8 1 11 -2 7 -8 -5 -8 -11 -8
-21 1 -7 6 -11 15 -8 20 8 13 14 11 12 -3z m7413 -41 c-6 -8 -7 -18 -3 -22 4
-5 1 -5 -6 -1 -10 6 -10 11 -1 22 6 8 14 14 16 14 3 0 0 -6 -6 -13z m-7200
-20 c-10 -9 -11 -8 -5 6 3 10 9 15 12 12 3 -3 0 -11 -7 -18z m49 13 c0 -5 -5
-10 -11 -10 -5 0 -7 5 -4 10 3 6 8 10 11 10 2 0 4 -4 4 -10z m6227 -130 c-1
-21 -10 -18 -13 5 -1 8 2 15 6 15 5 0 8 -9 7 -20z m309 -272 c4 -7 3 -8 -4 -4
-7 4 -12 2 -12 -5 0 -7 -3 -10 -6 -6 -6 5 3 27 11 27 2 0 7 -5 11 -12z m-361
-198 c3 -5 1 -10 -4 -10 -6 0 -11 5 -11 10 0 6 2 10 4 10 3 0 8 -4 11 -10z
m865 -5 c0 -2 -6 -5 -13 -8 -8 -3 -14 1 -14 8 0 7 6 11 14 8 7 -3 13 -6 13 -8z
m-320 -9 c0 -2 -7 -7 -16 -10 -8 -3 -12 -2 -9 4 6 10 25 14 25 6z m40 -11 c0
-2 -10 -9 -22 -15 -22 -11 -22 -10 -4 4 21 17 26 19 26 11z m154 -20 c3 -8 1
-15 -4 -15 -6 0 -10 7 -10 15 0 8 2 15 4 15 2 0 6 -7 10 -15z m-759 -195 c3
-5 1 -10 -4 -10 -6 0 -11 5 -11 10 0 6 2 10 4 10 3 0 8 -4 11 -10z m-5593 -42
c-9 -9 -7 -15 6 -25 15 -13 14 -13 -6 -3 -19 9 -21 14 -11 26 6 8 14 14 17 14
3 0 1 -5 -6 -12z m5605 6 c-3 -3 -12 -4 -19 -1 -8 3 -5 6 6 6 11 1 17 -2 13
-5z m-5587 -84 c0 -5 -2 -10 -4 -10 -3 0 -8 5 -11 10 -3 6 -1 10 4 10 6 0 11
-4 11 -10z m5570 -122 c0 -14 -18 -17 -28 -5 -8 10 -6 13 9 13 10 0 19 -4 19
-8z m-5453 -233 c0 -8 -4 -12 -9 -9 -5 3 -6 10 -3 15 9 13 12 11 12 -6z m47
-124 c4 -5 -3 -7 -14 -4 -23 6 -26 13 -6 13 8 0 17 -4 20 -9z m5361 -49 c-3
-3 -11 0 -18 7 -9 10 -8 11 6 5 10 -3 15 -9 12 -12z m-5260 -312 c-3 -5 -1
-10 6 -10 7 0 10 -3 6 -6 -9 -9 -28 6 -22 17 4 5 8 9 11 9 3 0 2 -4 -1 -10z
m5220 -400 c-3 -5 -12 -10 -18 -10 -7 0 -6 4 3 10 19 12 23 12 15 0z m-5 -94
c0 -2 -7 -7 -16 -10 -8 -3 -12 -2 -9 4 6 10 25 14 25 6z m-4 -81 c-3 -23 -22
-39 -31 -26 -3 7 -1 10 6 9 7 -2 14 3 15 10 2 19 4 22 8 22 2 0 3 -7 2 -15z
m-19 -117 c-3 -7 -5 -2 -5 12 0 14 2 19 5 13 2 -7 2 -19 0 -25z m-4967 12 c0
-5 -2 -10 -4 -10 -3 0 -8 5 -11 10 -3 6 -1 10 4 10 6 0 11 -4 11 -10z m25 -70
c-3 -5 -12 -10 -18 -10 -7 0 -6 4 3 10 19 12 23 12 15 0z m4965 -4 c0 -2 -7
-6 -15 -10 -8 -3 -15 -1 -15 4 0 6 7 10 15 10 8 0 15 -2 15 -4z m-10 -221 c0
-12 -19 -12 -23 0 -4 9 -1 12 9 8 7 -3 14 -7 14 -8z m-2593 -180 c0 -8 -4 -15
-9 -15 -10 0 -11 14 -1 23 9 10 10 9 10 -8z m123 -7 c0 -4 -4 -8 -9 -8 -6 0
-12 4 -15 8 -3 5 1 9 9 9 8 0 15 -4 15 -9z m-420 -72 c0 -3 -4 -8 -10 -11 -5
-3 -10 -1 -10 4 0 6 5 11 10 11 6 0 10 -2 10 -4z m-1886 -47 c-2 -4 2 -10 8
-12 8 -4 9 -6 2 -6 -6 -1 -17 5 -23 12 -8 10 -7 14 4 14 8 0 12 -4 9 -8z
m4741 -69 c-3 -5 -1 -19 5 -30 8 -15 8 -18 -3 -14 -8 3 -13 15 -12 27 3 26 3
27 11 27 3 0 2 -4 -1 -10z m-4518 -425 c0 -8 -4 -12 -9 -9 -5 3 -6 10 -3 15 9
13 12 11 12 -6z m48 -99 c0 -14 -5 -22 -12 -19 -9 4 -10 10 -2 24 13 24 14 24
14 -5z m3030 4 c-3 -5 -1 -10 6 -10 7 0 10 -3 6 -6 -3 -4 -14 -3 -24 0 -15 6
-15 8 -3 16 19 12 23 12 15 0z m85 -170 c0 -5 -2 -10 -4 -10 -3 0 -8 5 -11 10
-3 6 -1 10 4 10 6 0 11 -4 11 -10z m1380 -40 c0 -5 -5 -10 -11 -10 -5 0 -7 5
-4 10 3 6 8 10 11 10 2 0 4 -4 4 -10z m-1347 -65 c-3 -9 -8 -14 -10 -11 -3 3
-2 9 2 15 9 16 15 13 8 -4z m-1508 -124 c3 -5 2 -12 -3 -15 -5 -3 -9 1 -9 9 0
17 3 19 12 6z m2949 -37 c3 -8 2 -12 -4 -9 -6 3 -10 10 -10 16 0 14 7 11 14
-7z m-2940 -15 c-3 -5 -10 -7 -15 -3 -5 3 -7 10 -3 15 3 5 10 7 15 3 5 -3 7
-10 3 -15z m-1503 -17 c-7 -2 -18 1 -23 6 -8 8 -4 9 13 5 13 -4 18 -8 10 -11z
m1516 -132 c1 -11 -3 -20 -8 -20 -6 0 -7 5 -4 10 3 6 0 10 -7 10 -9 0 -9 3 2
10 8 5 15 10 15 10 1 0 1 -9 2 -20z m2967 -16 c3 -8 2 -12 -4 -9 -6 3 -10 10
-10 16 0 14 7 11 14 -7z m-1522 -61 c-6 -2 -10 -9 -6 -14 3 -5 0 -9 -5 -9 -12
0 -14 13 -4 23 3 4 11 7 17 6 6 0 5 -3 -2 -6z m1613 -13 c3 -5 2 -10 -4 -10
-5 0 -13 5 -16 10 -3 6 -2 10 4 10 5 0 13 -4 16 -10z m-4827 -205 c-6 -14 -15
-25 -20 -25 -5 0 -1 11 8 25 9 14 18 25 20 25 2 0 -2 -11 -8 -25z m1867 -165
c-3 -5 -12 -10 -18 -10 -7 0 -6 4 3 10 19 12 23 12 15 0z m1215 -190 c0 -5 -2
-10 -4 -10 -3 0 -8 5 -11 10 -3 6 -1 10 4 10 6 0 11 -4 11 -10z m2225 -29 c3
-5 0 -13 -6 -17 -7 -4 -9 -3 -5 4 3 5 0 13 -6 15 -9 4 -10 6 -1 6 6 1 14 -3
18 -8z m-2250 -21 c3 -5 -1 -10 -10 -10 -9 0 -13 5 -10 10 3 6 8 10 10 10 2 0
7 -4 10 -10z m-1079 -455 c-1 -8 -6 -18 -11 -22 -4 -4 -5 -2 -1 5 4 7 2 12 -6
12 -9 0 -9 3 2 10 19 12 19 13 16 -5z m-1 -64 c3 -5 2 -12 -3 -15 -5 -3 -9 1
-9 9 0 17 3 19 12 6z m1039 -70 c3 -5 -1 -11 -9 -14 -9 -4 -12 -1 -8 9 6 16
10 17 17 5z m-4094 -56 c0 -2 -10 -10 -22 -16 -21 -11 -22 -11 -9 4 13 16 31
23 31 12z m3054 -3 c3 -5 -1 -9 -9 -9 -8 0 -12 4 -9 9 3 4 7 8 9 8 2 0 6 -4 9
-8z m-3104 -66 c0 -2 -7 -7 -16 -10 -8 -3 -12 -2 -9 4 6 10 25 14 25 6z m7240
-37 c6 -10 7 -19 3 -19 -4 0 -13 11 -20 25 -13 29 2 24 17 -6z m-3100 1 c0 -5
-4 -10 -10 -10 -5 0 -10 5 -10 10 0 6 5 10 10 10 6 0 10 -4 10 -10z m-4200
-170 c-7 -4 -10 -13 -6 -19 4 -7 1 -9 -8 -5 -12 5 -13 10 -4 24 7 10 16 16 21
13 5 -3 4 -9 -3 -13z m10 -110 c0 -5 -2 -10 -4 -10 -3 0 -8 5 -11 10 -3 6 -1
10 4 10 6 0 11 -4 11 -10z m7350 -24 c0 -2 -8 -10 -17 -17 -16 -13 -17 -12 -4
4 13 16 21 21 21 13z m-7375 -58 c-1 -10 -8 -24 -15 -31 -12 -10 -12 -9 -1 6
7 9 9 17 4 17 -5 0 -10 6 -10 13 0 8 6 14 12 14 6 0 11 -9 10 -19z m5096 -161
c-10 -9 -11 -8 -5 6 3 10 9 15 12 12 3 -3 0 -11 -7 -18z m129 -21 c0 -3 -4 -8
-10 -11 -5 -3 -10 -1 -10 4 0 6 5 11 10 11 6 0 10 -2 10 -4z m2085 -56 c-3 -5
-14 -10 -23 -9 -14 0 -13 2 3 9 27 11 27 11 20 0z m-1805 -40 c0 -5 -2 -10 -4
-10 -3 0 -8 5 -11 10 -3 6 -1 10 4 10 6 0 11 -4 11 -10z m1484 -26 c5 -14 4
-15 -9 -4 -17 14 -19 20 -6 20 5 0 12 -7 15 -16z m-1137 -26 c-3 -8 -6 -5 -6
6 -1 11 2 17 5 13 3 -3 4 -12 1 -19z m934 -1 c-10 -9 -11 -8 -5 6 3 10 9 15
12 12 3 -3 0 -11 -7 -18z m139 19 c0 -3 -4 -8 -10 -11 -5 -3 -10 -1 -10 4 0 6
5 11 10 11 6 0 10 -2 10 -4z m-5080 -11 c0 -7 -30 -13 -34 -7 -3 4 4 9 15 9
10 1 19 0 19 -2z m4914 -3 c3 -5 -1 -9 -9 -9 -8 0 -12 4 -9 9 3 4 7 8 9 8 2 0
6 -4 9 -8z m-5914 -58 c0 -8 -19 -13 -24 -6 -3 5 1 9 9 9 8 0 15 -2 15 -3z
m374 -2 c3 -5 -1 -9 -9 -9 -8 0 -12 4 -9 9 3 4 7 8 9 8 2 0 6 -4 9 -8z"/>
<path d="M7150 14568 c0 -15 18 -17 30 -3 9 11 8 14 -9 12 -12 -1 -21 -5 -21
-9z"/>
<path d="M6970 14550 c-9 -6 -10 -10 -3 -10 6 0 15 5 18 10 8 12 4 12 -15 0z"/>
<path d="M4637 14479 c7 -7 15 -10 18 -7 3 3 -2 9 -12 12 -14 6 -15 5 -6 -5z"/>
<path d="M8985 14381 c-9 -16 15 -24 30 -11 12 10 18 10 30 0 9 -7 15 -8 15
-2 0 15 -32 24 -44 12 -13 -13 -29 -13 -21 0 3 6 4 10 1 10 -3 0 -7 -4 -11 -9z"/>
<path d="M9170 14349 c0 -5 5 -7 10 -4 6 3 10 8 10 11 0 2 -4 4 -10 4 -5 0
-10 -5 -10 -11z"/>
<path d="M9355 14270 c-3 -5 -1 -10 4 -10 6 0 11 5 11 10 0 6 -2 10 -4 10 -3
0 -8 -4 -11 -10z"/>
<path d="M7890 14189 c0 -5 5 -7 10 -4 6 3 10 8 10 11 0 2 -4 4 -10 4 -5 0
-10 -5 -10 -11z"/>
<path d="M8290 14110 c0 -5 5 -10 11 -10 5 0 7 5 4 10 -3 6 -8 10 -11 10 -2 0
-4 -4 -4 -10z"/>
<path d="M5485 14031 c-6 -11 13 -26 22 -17 4 3 1 6 -6 6 -7 0 -9 5 -6 10 3 6
4 10 1 10 -3 0 -7 -4 -11 -9z"/>
<path d="M8151 13981 c-8 -5 -9 -11 -3 -15 5 -3 15 1 22 9 14 16 3 20 -19 6z"/>
<path d="M5615 13668 c1 -12 7 -23 14 -24 6 -1 7 0 2 2 -6 3 -8 11 -5 19 3 7
1 15 -4 19 -5 3 -8 -5 -7 -16z"/>
<path d="M9856 13565 c4 -8 8 -15 10 -15 2 0 4 7 4 15 0 8 -4 15 -10 15 -5 0
-7 -7 -4 -15z"/>
<path d="M9876 13543 c-6 -14 -5 -15 5 -6 7 7 10 15 7 18 -3 3 -9 -2 -12 -12z"/>
<path d="M4993 13435 c0 -7 6 -11 14 -8 7 3 13 6 13 8 0 2 -6 5 -13 8 -8 3
-14 -1 -14 -8z"/>
<path d="M5964 13432 c3 -5 0 -13 -6 -15 -9 -4 -10 -6 -1 -6 17 -1 25 16 12
25 -7 4 -9 3 -5 -4z"/>
<path d="M5860 13340 c-8 -5 -10 -10 -5 -10 6 0 17 5 25 10 8 5 11 10 5 10 -5
0 -17 -5 -25 -10z"/>
<path d="M9923 13326 c0 -8 6 -12 14 -9 7 3 10 9 7 14 -8 14 -21 11 -21 -5z"/>
<path d="M5806 13294 c-40 -35 -28 -39 14 -3 19 15 31 28 25 28 -5 0 -23 -11
-39 -25z"/>
<path d="M9956 13143 c-4 -9 -1 -21 5 -27 9 -8 10 -7 6 6 -3 9 -1 18 6 21 8 2
8 5 0 10 -6 4 -14 -1 -17 -10z"/>
<path d="M4960 13016 c0 -3 9 -10 20 -16 11 -6 20 -8 20 -6 0 3 -9 10 -20 16
-11 6 -20 8 -20 6z"/>
<path d="M4601 12851 c-8 -5 -9 -11 -3 -15 5 -3 15 1 22 9 14 16 3 20 -19 6z"/>
<path d="M10395 12650 c3 -5 8 -10 11 -10 2 0 4 5 4 10 0 6 -5 10 -11 10 -5 0
-7 -4 -4 -10z"/>
<path d="M10760 12401 c0 -6 4 -13 10 -16 6 -3 7 1 4 9 -7 18 -14 21 -14 7z"/>
<path d="M4103 12375 c0 -8 4 -12 9 -9 5 3 6 10 3 15 -9 13 -12 11 -12 -6z"/>
<path d="M11366 12018 c3 -5 10 -6 15 -3 13 9 11 12 -6 12 -8 0 -12 -4 -9 -9z"/>
<path d="M4156 11998 c3 -5 10 -6 15 -3 13 9 11 12 -6 12 -8 0 -12 -4 -9 -9z"/>
<path d="M4175 11921 c-3 -5 -1 -12 5 -16 6 -4 7 -11 4 -17 -4 -7 -2 -8 5 -4
8 6 9 12 2 20 -6 7 -8 16 -4 19 3 4 4 7 0 7 -3 0 -8 -4 -12 -9z"/>
<path d="M11596 11883 c-6 -14 -5 -15 5 -6 7 7 10 15 7 18 -3 3 -9 -2 -12 -12z"/>
<path d="M4170 11789 c0 -5 5 -7 10 -4 6 3 10 8 10 11 0 2 -4 4 -10 4 -5 0
-10 -5 -10 -11z"/>
<path d="M11735 11770 c3 -5 8 -10 11 -10 2 0 4 5 4 10 0 6 -5 10 -11 10 -5 0
-7 -4 -4 -10z"/>
<path d="M4175 11710 c-3 -5 -1 -10 4 -10 6 0 11 5 11 10 0 6 -2 10 -4 10 -3
0 -8 -4 -11 -10z"/>
<path d="M4180 11680 c-9 -6 -10 -10 -3 -10 6 0 15 5 18 10 8 12 4 12 -15 0z"/>
<path d="M11824 11229 c1 -15 7 -33 14 -39 9 -7 9 -7 2 2 -14 17 -12 31 3 22
9 -6 9 -5 0 7 -9 11 -9 19 -2 26 6 6 5 10 -4 10 -8 0 -13 -11 -13 -28z"/>
<path d="M4175 11230 c-3 -5 -1 -10 4 -10 6 0 11 5 11 10 0 6 -2 10 -4 10 -3
0 -8 -4 -11 -10z"/>
<path d="M4176 11198 c3 -5 10 -6 15 -3 13 9 11 12 -6 12 -8 0 -12 -4 -9 -9z"/>
<path d="M11826 11024 c-5 -14 -4 -15 9 -4 17 14 19 20 6 20 -5 0 -12 -7 -15
-16z"/>
<path d="M4175 10550 c-3 -6 1 -7 9 -4 18 7 21 14 7 14 -6 0 -13 -4 -16 -10z"/>
<path d="M3962 9944 c-7 -8 -8 -14 -3 -14 10 0 25 19 20 25 -2 1 -10 -3 -17
-11z"/>
<path d="M11415 9731 c-3 -5 -2 -12 3 -15 5 -3 9 1 9 9 0 17 -3 19 -12 6z"/>
<path d="M11343 9643 c-17 -6 -17 -20 0 -20 8 0 14 6 14 14 0 7 -1 13 -1 12
-1 0 -7 -3 -13 -6z"/>
<path d="M11145 9441 c-3 -5 -2 -12 3 -15 5 -3 9 1 9 9 0 17 -3 19 -12 6z"/>
<path d="M3956 9418 c3 -5 10 -6 15 -3 13 9 11 12 -6 12 -8 0 -12 -4 -9 -9z"/>
<path d="M11090 9350 c0 -5 5 -10 10 -10 6 0 10 5 10 10 0 6 -4 10 -10 10 -5
0 -10 -4 -10 -10z"/>
<path d="M10916 8757 c3 -10 9 -15 12 -12 3 3 0 11 -7 18 -10 9 -11 8 -5 -6z"/>
<path d="M3116 8672 c-3 -5 1 -9 9 -9 8 0 12 4 9 9 -3 4 -7 8 -9 8 -2 0 -6 -4
-9 -8z"/>
<path d="M3203 8673 c-17 -6 -17 -20 0 -20 8 0 14 6 14 14 0 7 -1 13 -1 12 -1
0 -7 -3 -13 -6z"/>
<path d="M11038 8283 c7 -3 16 -2 19 1 4 3 -2 6 -13 5 -11 0 -14 -3 -6 -6z"/>
<path d="M2893 8095 c0 -8 4 -12 9 -9 5 3 6 10 3 15 -9 13 -12 11 -12 -6z"/>
<path d="M3070 7970 c0 -5 5 -10 11 -10 5 0 7 5 4 10 -3 6 -8 10 -11 10 -2 0
-4 -4 -4 -10z"/>
<path d="M11395 7610 c-3 -5 -1 -10 4 -10 6 0 11 5 11 10 0 6 -2 10 -4 10 -3
0 -8 -4 -11 -10z"/>
<path d="M4074 7379 c-4 -7 -3 -9 4 -5 5 3 12 0 15 -6 2 -7 7 -10 11 -7 4 3 0
12 -8 18 -11 9 -16 9 -22 0z"/>
<path d="M11430 7109 c0 -5 5 -7 10 -4 6 3 10 8 10 11 0 2 -4 4 -10 4 -5 0
-10 -5 -10 -11z"/>
<path d="M3886 6837 c3 -10 9 -15 12 -12 3 3 0 11 -7 18 -10 9 -11 8 -5 -6z"/>
<path d="M3870 6806 c0 -2 7 -7 16 -10 8 -3 12 -2 9 4 -6 10 -25 14 -25 6z"/>
<path d="M3880 6750 c0 -5 5 -10 11 -10 5 0 7 -5 3 -12 -4 -7 -3 -8 5 -4 9 6
9 11 0 22 -14 17 -19 18 -19 4z"/>
<path d="M10594 6489 c-4 -7 -3 -9 4 -5 5 3 13 0 15 -6 4 -9 6 -10 6 -1 1 17
-16 25 -25 12z"/>
<path d="M4602 6460 c7 -10 14 -18 15 -16 6 6 -9 36 -18 36 -5 0 -4 -9 3 -20z"/>
<path d="M11415 6470 c3 -5 8 -10 11 -10 2 0 4 5 4 10 0 6 -5 10 -11 10 -5 0
-7 -4 -4 -10z"/>
<path d="M11406 6441 c-3 -5 0 -13 7 -19 10 -8 13 -6 13 9 0 20 -11 25 -20 10z"/>
<path d="M11430 6351 c0 -6 4 -13 10 -16 6 -3 7 1 4 9 -7 18 -14 21 -14 7z"/>
<path d="M4633 6305 c0 -8 4 -12 9 -9 5 3 6 10 3 15 -9 13 -12 11 -12 -6z"/>
<path d="M10723 6243 c-10 -3 -10 -8 1 -19 18 -18 32 -18 17 -1 -6 8 -8 17 -4
20 7 8 4 8 -14 0z"/>
<path d="M10490 6206 c0 -2 8 -10 18 -17 15 -13 16 -12 3 4 -13 16 -21 21 -21
13z"/>
<path d="M11215 5900 c-3 -5 -1 -10 4 -10 6 0 11 5 11 10 0 6 -2 10 -4 10 -3
0 -8 -4 -11 -10z"/>
<path d="M4740 5846 c0 -2 7 -7 16 -10 8 -3 12 -2 9 4 -6 10 -25 14 -25 6z"/>
<path d="M10435 5770 c-3 -5 -1 -10 4 -10 6 0 11 5 11 10 0 6 -2 10 -4 10 -3
0 -8 -4 -11 -10z"/>
<path d="M4785 5751 c-3 -5 -2 -12 3 -15 5 -3 9 1 9 9 0 17 -3 19 -12 6z"/>
<path d="M10389 5278 c-6 -21 -5 -38 1 -38 15 0 21 18 8 24 -7 4 -3 4 10 2 12
-2 20 0 16 5 -4 8 -33 13 -35 7z"/>
<path d="M10380 5135 c-9 -11 -9 -15 -1 -15 7 0 9 -5 5 -12 -4 -7 -3 -8 4 -4
6 4 8 14 5 23 -5 12 -3 14 7 8 9 -5 11 -4 6 3 -9 15 -11 15 -26 -3z"/>
<path d="M10375 4961 c4 -8 2 -17 -6 -22 -9 -6 -10 -9 -2 -9 19 0 27 21 13 33
-10 9 -11 9 -5 -2z"/>
<path d="M5065 4800 c-3 -6 1 -7 9 -4 18 7 21 14 7 14 -6 0 -13 -4 -16 -10z"/>
<path d="M5178 4473 c7 -3 16 -2 19 1 4 3 -2 6 -13 5 -11 0 -14 -3 -6 -6z"/>
<path d="M5325 3960 c-6 -10 -5 -11 18 -14 6 -1 11 -8 9 -15 -1 -7 2 -9 8 -6
8 5 6 13 -6 26 -20 22 -21 22 -29 9z"/>
<path d="M5355 3850 c3 -5 8 -10 11 -10 2 0 4 5 4 10 0 6 -5 10 -11 10 -5 0
-7 -4 -4 -10z"/>
<path d="M10313 3840 c-1 -11 2 -20 5 -20 4 0 8 9 9 20 1 11 -2 20 -5 20 -4 0
-8 -9 -9 -20z"/>
<path d="M10304 3689 c0 -19 4 -25 14 -22 11 5 11 7 1 14 -10 6 -10 11 -1 22
9 10 9 14 -1 14 -8 0 -13 -12 -13 -28z"/>
<path d="M5476 3572 c-3 -5 1 -9 9 -9 8 0 12 4 9 9 -3 4 -7 8 -9 8 -2 0 -6 -4
-9 -8z"/>
<path d="M8215 3490 c-3 -5 -1 -10 4 -10 6 0 11 5 11 10 0 6 -2 10 -4 10 -3 0
-8 -4 -11 -10z"/>
<path d="M8240 3484 c0 -17 27 -37 34 -25 4 5 2 12 -4 16 -5 3 -10 3 -10 -2 0
-4 -5 -1 -10 7 -5 8 -10 10 -10 4z"/>
<path d="M8383 3395 c0 -8 4 -12 9 -9 5 3 6 10 3 15 -9 13 -12 11 -12 -6z"/>
<path d="M8550 3249 c0 -5 5 -7 10 -4 6 3 10 8 10 11 0 2 -4 4 -10 4 -5 0 -10
-5 -10 -11z"/>
<path d="M10284 3231 c0 -11 5 -17 13 -14 10 4 11 9 2 19 -15 18 -15 18 -15
-5z"/>
<path d="M8714 3039 c-3 -6 -1 -16 5 -22 9 -9 10 -7 5 7 -6 15 -4 17 6 11 9
-5 11 -4 6 3 -9 15 -13 15 -22 1z"/>
<path d="M10273 2915 c0 -8 4 -12 9 -9 5 3 6 10 3 15 -9 13 -12 11 -12 -6z"/>
<path d="M10285 2840 c-10 -11 -14 -20 -9 -20 5 0 15 9 22 20 7 11 11 20 9 20
-2 0 -12 -9 -22 -20z"/>
<path d="M7367 2703 c-3 -4 1 -17 9 -28 14 -19 15 -19 11 2 -4 26 -13 38 -20
26z"/>
<path d="M10319 2614 c6 -12 7 -24 4 -28 -3 -3 -1 -6 5 -6 16 0 15 12 -4 36
-15 18 -15 18 -5 -2z"/>
<path d="M7395 2601 c-3 -5 -2 -12 3 -15 5 -3 9 1 9 9 0 17 -3 19 -12 6z"/>
<path d="M7502 2200 c12 -19 28 -27 28 -14 0 7 -27 34 -34 34 -4 0 -1 -9 6
-20z"/>
<path d="M10635 2070 c3 -5 8 -10 11 -10 2 0 4 5 4 10 0 6 -5 10 -11 10 -5 0
-7 -4 -4 -10z"/>
<path d="M8861 2041 c-8 -5 -9 -11 -3 -15 5 -3 12 1 16 9 6 17 6 18 -13 6z"/>
<path d="M10740 1935 c0 -13 20 -35 32 -35 4 0 8 5 8 11 0 5 -4 8 -9 4 -6 -3
-14 3 -20 12 -6 10 -11 13 -11 8z"/>
<path d="M8838 1913 c7 -3 16 -2 19 1 4 3 -2 6 -13 5 -11 0 -14 -3 -6 -6z"/>
<path d="M8810 1871 c0 -6 4 -13 10 -16 6 -3 7 1 4 9 -7 18 -14 21 -14 7z"/>
<path d="M5590 1850 c0 -5 5 -10 11 -10 5 0 7 5 4 10 -3 6 -8 10 -11 10 -2 0
-4 -4 -4 -10z"/>
<path d="M5557 1805 c-8 -8 -18 -11 -22 -7 -5 4 -5 1 -1 -6 6 -11 12 -10 27 4
10 9 19 19 19 21 0 7 -9 2 -23 -12z"/>
<path d="M5457 1690 c3 -11 9 -17 15 -14 5 3 4 12 -3 20 -16 19 -18 18 -12 -6z"/>
<path d="M7630 1571 c4 -9 9 -20 10 -26 3 -20 6 -14 5 14 0 15 -5 28 -12 28
-8 0 -9 -6 -3 -16z"/>
<path d="M8730 1530 c0 -5 5 -10 11 -10 5 0 7 5 4 10 -3 6 -8 10 -11 10 -2 0
-4 -4 -4 -10z"/>
<path d="M11268 1368 c5 -5 16 -8 23 -6 8 3 3 7 -10 11 -17 4 -21 3 -13 -5z"/>
<path d="M7665 1260 c-8 -13 3 -30 18 -30 8 0 7 3 -2 9 -7 5 -10 14 -7 20 4 6
5 11 2 11 -3 0 -8 -4 -11 -10z"/>
<path d="M4970 1245 c0 -7 30 -13 34 -7 3 4 -4 9 -15 9 -10 1 -19 0 -19 -2z"/>
<path d="M7670 1194 c0 -3 7 -12 15 -20 16 -17 18 -14 9 10 -6 15 -24 23 -24
10z"/>
<path d="M11544 1190 c2 -16 20 -14 24 2 3 10 2 10 -6 -1 -7 -9 -11 -10 -15
-2 -4 7 -5 8 -3 1z"/>
<path d="M11590 1160 c0 -5 5 -10 11 -10 5 0 7 5 4 10 -3 6 -8 10 -11 10 -2 0
-4 -4 -4 -10z"/>
<path d="M4773 1115 c0 -8 4 -12 9 -9 5 3 6 10 3 15 -9 13 -12 11 -12 -6z"/>
<path d="M8700 1100 c-12 -7 -12 -11 -2 -20 6 -5 10 -7 7 -4 -3 4 0 13 6 21
13 15 10 16 -11 3z"/>
<path d="M8690 709 c0 -5 5 -7 10 -4 6 3 10 8 10 11 0 2 -4 4 -10 4 -5 0 -10
-5 -10 -11z"/>
<path d="M4475 300 c-3 -5 -2 -10 4 -10 5 0 13 5 16 10 3 6 2 10 -4 10 -5 0
-13 -4 -16 -10z"/>
<path d="M6855 299 c-4 -6 -4 -13 -1 -16 3 -4 6 -1 6 6 0 7 5 9 12 5 7 -4 8
-3 4 4 -9 15 -13 15 -21 1z"/>
<path d="M6656 225 c-9 -26 -7 -32 5 -12 6 10 9 21 6 23 -2 3 -7 -2 -11 -11z"/>
<path d="M4505 179 c-4 -6 -4 -13 -1 -16 3 -4 6 -1 6 6 0 7 5 9 12 5 7 -4 8
-3 4 4 -9 15 -13 15 -21 1z"/>
<path d="M10180 150 c-9 -6 -10 -10 -3 -10 6 0 15 5 18 10 8 12 4 12 -15 0z"/>
<path d="M5156 62 c-3 -5 1 -9 9 -9 8 0 12 4 9 9 -3 4 -7 8 -9 8 -2 0 -6 -4
-9 -8z"/>
<path d="M5750 59 c0 -5 5 -7 10 -4 6 3 10 8 10 11 0 2 -4 4 -10 4 -5 0 -10
-5 -10 -11z"/>
</g>
</svg>
